$MeshFormat
4.1 0 8
$EndMeshFormat
$PhysicalNames
3
2 14 "clamp"
2 15 "pressure"
3 13 "volume"
$EndPhysicalNames
$Entities
8 12 6 1
1 0 0 0 0 
2 8 0 0 0 
3 8 2 0 0 
4 0 2 0 0 
5 0 0 2 0 
6 8 0 2 0 
7 8 2 2 0 
8 0 2 2 0 
1 -9.999999983634211e-08 -1e-07 -1e-07 8.000000099999999 1e-07 1e-07 0 2 1 -2 
2 7.9999999 -9.999999994736442e-08 -1e-07 8.000000099999999 2.0000001 1e-07 0 2 2 -3 
3 -9.999999983634211e-08 1.9999999 -1e-07 8.000000099999999 2.0000001 1e-07 0 2 3 -4 
4 -1e-07 -9.999999994736442e-08 -1e-07 1e-07 2.0000001 1e-07 0 2 4 -1 
5 -9.999999983634211e-08 -1e-07 1.9999999 8.000000099999999 1e-07 2.0000001 0 2 5 -6 
6 7.9999999 -9.999999994736442e-08 1.9999999 8.000000099999999 2.0000001 2.0000001 0 2 6 -7 
7 -9.999999983634211e-08 1.9999999 1.9999999 8.000000099999999 2.0000001 2.0000001 0 2 7 -8 
8 -1e-07 -9.999999994736442e-08 1.9999999 1e-07 2.0000001 2.0000001 0 2 8 -5 
9 -1e-07 -1e-07 -9.999999994736442e-08 1e-07 1e-07 2.0000001 0 2 1 -5 
10 7.9999999 -1e-07 -9.999999994736442e-08 8.000000099999999 1e-07 2.0000001 0 2 2 -6 
11 7.9999999 1.9999999 -9.999999994736442e-08 8.000000099999999 2.0000001 2.0000001 0 2 3 -7 
12 -1e-07 1.9999999 -9.999999994736442e-08 1e-07 2.0000001 2.0000001 0 2 4 -8 
1 -9.999999983634211e-08 -9.999999994736442e-08 -1e-07 8.000000099999999 2.0000001 1e-07 0 4 1 2 3 4 
2 -9.999999983634211e-08 -9.999999994736442e-08 1.9999999 8.000000099999999 2.0000001 2.0000001 0 4 5 6 7 8 
3 -9.999999983634211e-08 -1e-07 -9.999999994736442e-08 8.000000099999999 1e-07 2.0000001 0 4 1 10 -5 -9 
4 7.9999999 -9.999999994736442e-08 -9.999999994736442e-08 8.000000099999999 2.0000001 2.0000001 1 14 4 2 11 -6 -10 
5 -9.999999983634211e-08 1.9999999 -9.999999994736442e-08 8.000000099999999 2.0000001 2.0000001 1 15 4 3 12 -7 -11 
6 -1e-07 -9.999999994736442e-08 -9.999999994736442e-08 1e-07 2.0000001 2.0000001 1 14 4 4 9 -8 -12 
1 -9.999999983634211e-08 -9.999999994736442e-08 -9.999999994736442e-08 8.000000099999999 2.0000001 2.0000001 1 13 6 -1 3 2 4 5 6 
$EndEntities
$Nodes
27 438 1 438
0 1 0 1
1
0 0 0
0 2 0 1
2
8 0 0
0 3 0 1
3
8 2 0
0 4 0 1
4
0 2 0
0 5 0 1
5
0 0 2
0 6 0 1
6
8 0 2
0 7 0 1
7
8 2 2
0 8 0 1
8
0 2 2
1 1 0 15
9
10
11
12
13
14
15
16
17
18
19
20
21
22
23
0.5 0 0
1 0 0
1.5 0 0
2 0 0
2.5 0 0
3 0 0
3.5 0 0
4 0 0
4.5 0 0
5 0 0
5.5 0 0
6 0 0
6.5 0 0
7 0 0
7.5 0 0
1 2 0 3
24
25
26
8 0.5 0
8 1 0
8 1.5 0
1 3 0 15
27
28
29
30
31
32
33
34
35
36
37
38
39
40
41
7.5 2 0
7 2 0
6.5 2 0
6 2 0
5.5 2 0
5 2 0
4.5 2 0
4 2 0
3.5 2 0
3 2 0
2.5 2 0
2 2 0
1.5 2 0
1 2 0
0.5 2 0
1 4 0 3
42
43
44
0 1.5 0
0 1 0
0 0.5 0
1 5 0 15
45
46
47
48
49
50
51
52
53
54
55
56
57
58
59
0.5 0 2
1 0 2
1.5 0 2
2 0 2
2.5 0 2
3 0 2
3.5 0 2
4 0 2
4.5 0 2
5 0 2
5.5 0 2
6 0 2
6.5 0 2
7 0 2
7.5 0 2
1 6 0 3
60
61
62
8 0.5 2
8 1 2
8 1.5 2
1 7 0 15
63
64
65
66
67
68
69
70
71
72
73
74
75
76
77
7.5 2 2
7 2 2
6.5 2 2
6 2 2
5.5 2 2
5 2 2
4.5 2 2
4 2 2
3.5 2 2
3 2 2
2.5 2 2
2 2 2
1.5 2 2
1 2 2
0.5 2 2
1 8 0 3
78
79
80
0 1.5 2
0 1 2
0 0.5 2
1 9 0 3
81
82
83
0 0 0.5
0 0 1
0 0 1.5
1 10 0 3
84
85
86
8 0 0.5
8 0 1
8 0 1.5
1 11 0 3
87
88
89
8 2 0.5
8 2 1
8 2 1.5
1 12 0 3
90
91
92
0 2 0.5
0 2 1
0 2 1.5
2 1 0 63
93
94
95
96
97
98
99
100
101
102
103
104
105
106
107
108
109
110
111
112
113
114
115
116
117
118
119
120
121
122
123
124
125
126
127
128
129
130
131
132
133
134
135
136
137
138
139
140
141
142
143
144
145
146
147
148
149
150
151
152
153
154
155
1.25 0.4330127018922193 0
2.25 0.4330127018922193 0
3.25 0.4118271434333516 0
4.25 0.4118271434333516 0
5.25 0.4118271434333516 0
6.25 0.4118271434333516 0
6.75 1.566987298107781 0
5.75 1.588172856566648 0
4.75 1.588172856566648 0
3.75 1.588172856566648 0
2.710602528363682 1.561441691445059 0
1.789397471636318 1.561441691445059 0
7.247881315359561 0.4233860225279159 0
0.4265668461264172 1.270601937522286 0
7.491098329577113 1.230816042906558 0
1.75 0.4118271434333518 0
1.948013603147988 0.8718933566617523 0
2.544559768730297 0.8757581439954922 0
2.25 1.299038105676658 0
2.757426628121716 0.4099183403920493 0
3.75 0.4047652906137291 0
3.5 0.8660254037844386 0
4.75 0.4047652906137291 0
4.5 0.8660254037844385 0
5.75 0.4047652906137291 0
5.5 0.8660254037844385 0
6.74964688589326 0.4278773289216907 0
7.094476549082082 0.8304456197703749 0
6.25 1.59170378297646 0
6.000000000000001 1.133974596215562 0
5.25 1.595234709386271 0
5 1.133974596215562 0
4.25 1.595234709386271 0
4 1.133974596215562 0
3.24343375472728 1.590779515199339 0
3 1.133974596215561 0
1.25 1.566987298107781 0
1.5 1.133974596215561 0
0.89499041985008 1.177689719596576 0
0.755813670653362 0.3854115352577034 0
6.513030402681949 0.8663106508548994 0
7.579491212436436 0.7493114654199035 0
0.7395971116268227 1.608208925240367 0
0.4561306725748135 0.7757586504566916 0
7.227775783664164 1.605544275779458 0
6.50202395729605 1.283805239159604 0
4.5 1.263476432433696 0
1.05948912717971 0.7741265427416641 0
4 0.736523567566304 0
5 0.7365235675663038 0
2.25 1.694100648860987 0
3.010397279370403 0.7395007255641786 0
6.00260608053639 0.7365806169803961 0
5.5 1.263476432433696 0
3.498686750945456 1.26258539359631 0
1.50150054606554 0.7249668681889098 0
6.92973417038356 1.230651521096446 0
7.643774822648256 1.667272063737204 0
0.3660254037844388 0.3660254037844386 0
0.3660254037844388 1.633974596215561 0
7.633974596215561 0.3660254037844388 0
1.871852768696076 1.216586937499758 0
2.626290574273495 1.217553134333193 0
2 2 0 63
156
157
158
159
160
161
162
163
164
165
166
167
168
169
170
171
172
173
174
175
176
177
178
179
180
181
182
183
184
185
186
187
188
189
190
191
192
193
194
195
196
197
198
199
200
201
202
203
204
205
206
207
208
209
210
211
212
213
214
215
216
217
218
1.25 0.4330127018922193 2
2.25 0.4330127018922193 2
3.25 0.4118271434333516 2
4.25 0.4118271434333516 2
5.25 0.4118271434333516 2
6.25 0.4118271434333516 2
6.75 1.566987298107781 2
5.75 1.588172856566648 2
4.75 1.588172856566648 2
3.75 1.588172856566648 2
2.710602528363682 1.561441691445059 2
1.789397471636318 1.561441691445059 2
7.247881315359561 0.4233860225279159 2
0.4265668461264172 1.270601937522286 2
7.491098329577113 1.230816042906558 2
1.75 0.4118271434333518 2
1.948013603147988 0.8718933566617523 2
2.544559768730297 0.8757581439954922 2
2.25 1.299038105676658 2
2.757426628121716 0.4099183403920493 2
3.75 0.4047652906137291 2
3.5 0.8660254037844386 2
4.75 0.4047652906137291 2
4.5 0.8660254037844385 2
5.75 0.4047652906137291 2
5.5 0.8660254037844385 2
6.74964688589326 0.4278773289216907 2
7.094476549082082 0.8304456197703749 2
6.25 1.59170378297646 2
6.000000000000001 1.133974596215562 2
5.25 1.595234709386271 2
5 1.133974596215562 2
4.25 1.595234709386271 2
4 1.133974596215562 2
3.24343375472728 1.590779515199339 2
3 1.133974596215561 2
1.25 1.566987298107781 2
1.5 1.133974596215561 2
0.89499041985008 1.177689719596576 2
0.755813670653362 0.3854115352577034 2
6.513030402681949 0.8663106508548994 2
7.579491212436436 0.7493114654199035 2
0.7395971116268227 1.608208925240367 2
0.4561306725748135 0.7757586504566916 2
7.227775783664164 1.605544275779458 2
6.50202395729605 1.283805239159604 2
4.5 1.263476432433696 2
1.05948912717971 0.7741265427416641 2
4 0.736523567566304 2
5 0.7365235675663038 2
2.25 1.694100648860987 2
3.010397279370403 0.7395007255641786 2
6.00260608053639 0.7365806169803961 2
5.5 1.263476432433696 2
3.498686750945456 1.26258539359631 2
1.50150054606554 0.7249668681889098 2
6.92973417038356 1.230651521096446 2
7.643774822648256 1.667272063737204 2
0.3660254037844388 0.3660254037844386 2
0.3660254037844388 1.633974596215561 2
7.633974596215561 0.3660254037844388 2
1.871852768696076 1.216586937499758 2
2.626290574273495 1.217553134333193 2
2 3 0 63
219
220
221
222
223
224
225
226
227
228
229
230
231
232
233
234
235
236
237
238
239
240
241
242
243
244
245
246
247
248
249
250
251
252
253
254
255
256
257
258
259
260
261
262
263
264
265
266
267
268
269
270
271
272
273
274
275
276
277
278
279
280
281
1.254571611506672 0 0.4096408096948462
2.25 0 0.4330127018922193
3.25 0 0.4118271434333516
4.25 0 0.4118271434333516
5.25 0 0.4118271434333516
6.25 0 0.4118271434333516
1.805156460290844 0 1.577382498887571
2.710602528363682 0 1.561441691445059
3.75 0 1.588172856566648
4.75 0 1.588172856566648
5.75 0 1.588172856566648
6.75 0 1.566987298107781
0.7521186846404384 0 1.576613977472084
7.247881315359561 0 0.4233860225279159
0.5089016704228864 0 0.7691839570934415
7.491098329577113 0 1.230816042906558
1.750761935251112 0 0.4291173865259906
2.022809526214504 0 0.8522804157104248
2.53946064328353 0 0.8709760405728109
2.261147022593223 0 1.285301182953494
2.756576773880588 0 0.4091213231549358
3.75 0 0.4047652906137291
3.5 0 0.8660254037844386
4.75 0 0.4047652906137291
4.5 0 0.8660254037844385
5.75 0 0.4047652906137291
5.5 0 0.8660254037844385
6.74964688589326 0 0.4278773289216907
7.094476549082082 0 0.8304456197703749
1.259545857488547 0 1.591509836590664
0.9917619212699016 0 1.147121743061107
3.24343375472728 0 1.590779515199339
3 0 1.133974596215561
4.25 0 1.595234709386271
4 0 1.133974596215562
5.25 0 1.595234709386271
5 0 1.133974596215562
6.25 0 1.59170378297646
6.000000000000001 0 1.133974596215562
1.486987261782829 0 0.8656659895595175
6.513030402681949 0 0.8663106508548994
7.579491212436436 0 0.7493114654199035
0.7720682169859501 0 0.380800050488235
0.4314361391004091 0 1.258101017503596
7.227775783664164 0 1.605544275779458
6.50202395729605 0 1.283805239159604
4.5 0 1.263476432433696
1.489935246124005 0 1.274902779233599
4 0 0.736523567566304
5 0 0.7365235675663038
2.25 0 1.694100648860987
3.009207483432824 0 0.7383849014322197
6.00260608053639 0 0.7365806169803961
3.498686750945456 0 1.26258539359631
5.5 0 1.263476432433696
6.92973417038356 0 1.230651521096446
1.002858136393648 0 0.7144825099794294
7.643774822648256 0 1.667272063737204
0.359002956425388 0 0.3402906878786505
0.3660254037844388 0 1.633974596215561
7.633974596215561 0 0.3660254037844388
1.813207103401081 0 1.171106573268921
2.617522481680254 0 1.218500738849825
2 4 0 14
282
283
284
285
286
287
288
289
290
291
292
293
294
295
8 0.4264624335545749 0.7281864257664643
8 1.491026004178691 1.2292007466733
8 1.249332516611219 0.4220846436391902
8 0.75126209208704 1.616101922919917
8 0.7568656464198631 0.3958420094511723
8 0.9886994546006774 0.8616180628297335
8 1.228912045653614 1.622548313347798
8 0.5042369950667323 1.227984803144241
8 1.566401986104808 0.7425922123498396
8 0.992827318317351 1.311490769782998
8 1.643987609966461 1.67034981200422
8 0.3660254037844387 0.3660254037844386
8 1.633974596215561 0.3660254037844387
8 0.3660254037844386 1.633974596215561
2 5 0 65
296
297
298
299
300
301
302
303
304
305
306
307
308
309
310
311
312
313
314
315
316
317
318
319
320
321
322
323
324
325
326
327
328
329
330
331
332
333
334
335
336
337
338
339
340
341
342
343
344
345
346
347
348
349
350
351
352
353
354
355
356
357
358
359
360
6.745913491193612 2 0.4306533549328053
5.75 2 0.4118271434333516
4.75 2 0.4330127018922193
3.75 2 0.4118271434333516
2.75 2 0.4118271434333516
1.75 2 0.4330127018922193
6.289397471636317 2 1.561441691445059
5.25 2 1.566987298107781
4.301986396852013 2 1.5580928368792
3.25 2 1.588172856566648
2.194843539709156 2 1.577382498887571
1.25 2 1.566987298107781
0.7521186846404389 2 0.4233860225279159
7.202434745306759 2 1.577380721241608
0.3953531183916654 2 1.281619653166406
7.520360594901284 2 0.7950655893775234
6.249318915198935 2 0.4079029925303048
6.447332518346922 2 0.8709957141099719
6.981835465445163 2 0.8339466891681789
6.75 2 1.299038105676658
5.25 2 0.429481775482408
5.555156460290844 2 0.8520992765948373
4.25 2 0.4082962170235404
4.460602528363682 2 0.8690489201544382
5.002626498109088 2 0.8424342557873354
4.75 2 1.299038105676658
3.25 2 0.4047652906137291
3.5 2 0.8660254037844385
2.25 2 0.429481775482408
2.5 2 0.8660254037844385
1.25035311410674 2 0.4314082553315021
0.9973410087457344 2 0.8112240632476532
5.779248782278705 2 1.57915879917697
6.006802163019286 2 1.141102734899334
3.758664399475335 2 1.590221372771696
4 2 1.133974596215562
2.740807256618193 2 1.593436316439758
3 2 1.133974596215562
1.977317462994015 2 0.8523411472031608
1.495835264307749 2 0.8331581713791075
1.741889578931955 2 1.292459420910796
7.58725178958412 2 1.254614108270603
0.4473959428911018 2 0.7862320749183869
0.7206826926279333 2 1.613777072928338
7.230347357959269 2 0.4042818395438245
5.238775636087168 2 1.154621629092005
2.509911114858287 2 1.278256461585226
3.501732879895067 2 1.262473765110781
3.992120505672736 2 0.7378344561222661
3 2 0.7365235675663038
1.256826212225275 2 1.149679907653217
6.75 2 1.694100648860986
4.75 2 1.694100648860986
1.75 2 1.694100648860987
6.001722011371198 2 0.7367855723135599
7.633974596215561 2 0.3660254037844386
0.3660254037844388 2 0.3660254037844388
0.3660254037844388 2 1.633974596215561
7.633974596215561 2 1.633974596215561
0.8210168306852679 2 1.20047285911836
7.20360456165786 2 1.17942328408816
5.565996608335201 2 1.258793947574185
6.386095222035911 2 1.220463492598803
4.363904777964089 2 1.212549209293416
2.184792339298683 2 1.173292986474239
2 6 0 14
361
362
363
364
365
366
367
368
369
370
371
372
373
374
0 0.7281864257664643 0.4264624335545749
0 1.2292007466733 1.491026004178691
0 0.4220846436391902 1.249332516611219
0 1.616101922919917 0.75126209208704
0 0.3958420094511723 0.7568656464198631
0 0.8616180628297335 0.9886994546006774
0 1.622548313347798 1.228912045653614
0 1.227984803144241 0.5042369950667323
0 0.7425922123498396 1.566401986104808
0 1.311490769782998 0.992827318317351
0 1.67034981200422 1.643987609966461
0 0.3660254037844386 0.3660254037844387
0 0.3660254037844387 1.633974596215561
0 1.633974596215561 0.3660254037844386
3 1 0 64
375
376
377
378
379
380
381
382
383
384
385
386
387
388
389
390
391
392
393
394
395
396
397
398
399
400
401
402
403
404
405
406
407
408
409
410
411
412
413
414
415
416
417
418
419
420
421
422
423
424
425
426
427
428
429
430
431
432
433
434
435
436
437
438
1.730360445790685 1.011465758645879 0.9987657970182128
2.761374996231026 1.005951789156399 0.9999999999999999
6.231497174948176 1.012505284775734 1.013274051379317
4.250560407334095 0.9952812773423185 0.9952812773423183
5.241254231622119 1.028018515681344 0.9563630650675543
7.122773319773153 1.102138856232921 1.127287660100688
0.8631651554652801 1.149642987163938 0.985004879270981
3.508073499178976 1.203465148277077 1.203506566556581
1.247168123210449 0.6469412575348803 0.6598707160846981
4.771658121548123 0.6598246804895411 1.335380686684341
3.690372163157658 0.6708266370998563 0.6708266370998563
1.304884184161457 0.6400365591789141 1.362991958479119
4.744440465761453 0.6608555512547044 0.6434009151731417
5.735353762458431 1.340857769092542 1.358371757427204
5.760208055694555 1.364207601444929 0.6638944116226017
4.721796122623208 1.345223438366684 0.6426481501193373
6.76633420664667 0.6741916651775486 0.6741916651775487
2.027050775791619 1.413176816207557 0.5928296927545071
5.717813754051035 0.6497781408457456 1.354362697930481
2.247219361162891 1.332126640389172 1.315178266216363
2.244429327902139 0.664882960395287 0.664882960395287
5.749550847746369 0.653122142904377 0.6554951907218607
3.820068821687525 1.359127193669813 0.6284254261491937
3.820714001621434 0.6290267062171957 1.36068126250285
6.707846199413368 1.353735915931528 0.6470582382415226
2.173354199612217 0.6636432708172767 1.370462556916917
4.706493131369003 1.330243249169161 1.361793189957167
6.696529477459279 0.6387816259279526 1.363645710135933
1.350783085655361 1.382372297491214 0.6182349380900767
1.340003967507563 1.388569612161861 1.359750035012236
6.540793189715589 1.413470129379112 1.385974954040666
3.176541168797253 0.609550694560095 1.390307562238953
7.394871340596048 0.8143195388896979 0.6162332222142084
0.6298417370950806 0.6364080328961788 1.353211350126475
3.176934291637447 1.393547392239347 0.6097800703425109
0.5962609970206837 0.6437968076884559 0.6739271237177388
4.061114234739629 1.430018166386746 1.417065014391102
7.312744791216129 0.5802160674405206 1.403402241185089
7.311742706827163 1.41883160062313 0.5762238174150521
0.5720406961242122 1.438472680171078 1.433963825660066
0.578789988542991 1.443384978376909 0.5504350098549202
3.066437519063724 0.6139974402388957 0.6138998856900352
2.602848456014934 1.405580249858448 0.5458093612806263
2.984425294853569 1.441582472876401 1.450112257564387
7.381793180645284 1.508612931090965 1.397728464555283
1.850434742430796 1.05108517620029 1.505306602396784
4.205888317302573 0.4674258877765646 0.6045494007359087
1.75605373864452 0.4738233886734949 0.905221454022558
5.243727906845761 0.4917650530647922 0.8153700448867068
2.548190776637253 0.4896849684309895 1.051544625525996
5.244249465139145 0.9088759326084055 1.503592945067019
5.244969213528359 1.331369480204077 0.4802382858779805
1.696798251332536 1.537015554904709 0.9841602045500875
4.277371218403367 1.09304663284042 0.4633121487184437
5.219207144740923 1.471237792031162 1.264923394536082
1.698534601786918 0.8781208245954149 0.4776136319686776
6.184533694254641 1.539693952939653 0.9366790825522048
4.235639249288107 0.9309674251699012 1.532349437535486
2.643088531166844 1.051192979138923 1.505959709751818
4.23291595868339 1.522000208217179 0.9219426157632363
6.263198098845431 0.5298341806610941 0.5298341806610941
7.560469049778619 0.9909129355298092 1.558131931657337
6.207577603879159 0.8067707847975849 1.50868478509232
4.298745754403178 0.4753424933935227 1.238417057990785
$EndNodes
$Elements
4 1623 1 1623
2 4 2 42
1 24 293 2 
2 2 293 84 
3 3 294 26 
4 87 294 3 
5 6 295 60 
6 86 295 6 
7 62 292 7 
8 7 292 89 
9 25 286 24 
10 286 293 24 
11 26 284 25 
12 284 286 25 
13 26 294 284 
14 60 285 61 
15 60 295 285 
16 61 288 62 
17 285 288 61 
18 288 292 62 
19 84 282 85 
20 84 293 282 
21 85 289 86 
22 282 289 85 
23 289 295 86 
24 88 290 87 
25 290 294 87 
26 89 283 88 
27 283 290 88 
28 89 292 283 
29 286 287 282 
30 282 293 286 
31 287 289 282 
32 287 290 283 
33 283 291 287 
34 288 291 283 
35 283 292 288 
36 284 287 286 
37 284 290 287 
38 284 294 290 
39 285 291 288 
40 289 291 285 
41 285 295 289 
42 287 291 289 
2 5 2 168
43 27 351 3 
44 3 351 87 
45 4 352 41 
46 90 352 4 
47 7 354 63 
48 89 354 7 
49 77 353 8 
50 8 353 92 
51 28 340 27 
52 340 351 27 
53 29 296 28 
54 296 340 28 
55 30 312 29 
56 29 312 296 
57 31 297 30 
58 297 312 30 
59 32 316 31 
60 31 316 297 
61 33 298 32 
62 298 316 32 
63 34 318 33 
64 33 318 298 
65 35 299 34 
66 299 318 34 
67 36 322 35 
68 35 322 299 
69 37 300 36 
70 300 322 36 
71 38 324 37 
72 37 324 300 
73 39 301 38 
74 301 324 38 
75 40 326 39 
76 39 326 301 
77 41 308 40 
78 308 326 40 
79 41 352 308 
80 63 309 64 
81 63 354 309 
82 64 347 65 
83 309 347 64 
84 65 302 66 
85 65 347 302 
86 66 328 67 
87 302 328 66 
88 67 303 68 
89 67 328 303 
90 68 348 69 
91 303 348 68 
92 69 304 70 
93 69 348 304 
94 70 330 71 
95 304 330 70 
96 71 305 72 
97 71 330 305 
98 72 332 73 
99 305 332 72 
100 73 306 74 
101 73 332 306 
102 74 349 75 
103 306 349 74 
104 75 307 76 
105 75 349 307 
106 76 339 77 
107 307 339 76 
108 339 353 77 
109 87 311 88 
110 87 351 311 
111 88 337 89 
112 311 337 88 
113 337 354 89 
114 91 338 90 
115 338 352 90 
116 92 310 91 
117 310 338 91 
118 92 353 310 
119 312 313 296 
120 313 314 296 
121 314 340 296 
122 297 350 312 
123 316 317 297 
124 317 350 297 
125 298 320 316 
126 318 319 298 
127 319 320 298 
128 299 344 318 
129 322 323 299 
130 323 344 299 
131 300 345 322 
132 324 325 300 
133 325 345 300 
134 301 334 324 
135 326 335 301 
136 301 335 334 
137 302 347 315 
138 315 358 302 
139 302 329 328 
140 302 358 329 
141 303 341 321 
142 321 348 303 
143 328 357 303 
144 303 357 341 
145 304 348 321 
146 321 359 304 
147 304 331 330 
148 304 359 331 
149 330 343 305 
150 305 333 332 
151 305 343 333 
152 332 342 306 
153 336 349 306 
154 306 360 336 
155 342 360 306 
156 336 346 307 
157 307 349 336 
158 307 355 339 
159 346 355 307 
160 308 327 326 
161 308 338 327 
162 308 352 338 
163 315 347 309 
164 309 356 315 
165 309 354 337 
166 337 356 309 
167 310 355 338 
168 310 353 339 
169 339 355 310 
170 311 340 314 
171 314 356 311 
172 311 356 337 
173 311 351 340 
174 312 350 313 
175 313 315 314 
176 313 358 315 
177 313 350 329 
178 329 358 313 
179 315 356 314 
180 316 320 317 
181 320 341 317 
182 329 350 317 
183 317 357 329 
184 341 357 317 
185 318 344 319 
186 319 321 320 
187 319 359 321 
188 319 344 331 
189 331 359 319 
190 321 341 320 
191 322 345 323 
192 323 343 331 
193 331 344 323 
194 333 343 323 
195 323 345 333 
196 324 334 325 
197 325 342 333 
198 333 345 325 
199 334 360 325 
200 325 360 342 
201 327 335 326 
202 327 346 335 
203 338 355 327 
204 327 355 346 
205 329 357 328 
206 331 343 330 
207 333 342 332 
208 335 336 334 
209 336 360 334 
210 335 346 336 
2 6 2 42
211 1 372 44 
212 81 372 1 
213 42 374 4 
214 4 374 90 
215 80 373 5 
216 5 373 83 
217 8 371 78 
218 92 371 8 
219 43 368 42 
220 368 374 42 
221 44 361 43 
222 361 368 43 
223 44 372 361 
224 78 362 79 
225 78 371 362 
226 79 369 80 
227 362 369 79 
228 369 373 80 
229 82 365 81 
230 365 372 81 
231 83 363 82 
232 363 365 82 
233 83 373 363 
234 90 364 91 
235 90 374 364 
236 91 367 92 
237 364 367 91 
238 367 371 92 
239 365 366 361 
240 361 372 365 
241 366 368 361 
242 366 369 362 
243 362 370 366 
244 367 370 362 
245 362 371 367 
246 363 366 365 
247 363 369 366 
248 363 373 369 
249 364 370 367 
250 368 370 364 
251 364 374 368 
252 366 370 368 
3 1 4 1371
253 122 399 377 435 
254 194 386 381 404 
255 377 402 257 435 
256 122 389 377 399 
257 257 402 377 437 
258 349 394 167 420 
259 381 386 194 408 
260 325 394 417 418 
261 349 167 404 420 
262 370 364 367 415 
263 336 394 349 420 
264 138 122 133 399 
265 194 404 381 414 
266 122 133 399 435 
267 175 424 400 433 
268 393 396 377 435 
269 384 254 423 425 
270 349 404 336 420 
271 325 342 394 418 
272 259 257 402 435 
273 273 423 254 425 
274 264 259 257 402 
275 194 381 408 414 
276 175 406 424 433 
277 121 389 399 431 
278 370 367 414 415 
279 387 423 142 426 
280 336 394 420 427 
281 305 165 190 382 
282 257 396 393 435 
283 376 417 394 418 
284 381 383 131 403 
285 336 420 404 427 
286 260 282 407 412 
287 257 393 377 435 
288 330 165 305 382 
289 384 387 378 390 
290 273 393 423 425 
291 131 383 381 410 
292 171 400 386 420 
293 377 389 122 435 
294 175 226 400 424 
295 257 377 393 437 
296 118 142 423 426 
297 257 264 402 437 
298 338 367 364 415 
299 273 254 393 425 
300 175 406 226 424 
301 378 384 390 401 
302 255 384 254 423 
303 392 394 375 395 
304 171 386 211 420 
305 247 260 407 412 
306 273 255 254 423 
307 131 410 381 415 
308 165 210 190 382 
309 379 387 384 390 
310 389 396 122 435 
311 314 399 380 405 
312 338 414 367 415 
313 377 396 389 435 
314 343 330 305 382 
315 388 393 379 396 
316 333 325 417 418 
317 171 225 386 400 
318 333 417 409 418 
319 381 403 131 415 
320 377 399 389 431 
321 379 389 388 396 
322 379 390 384 401 
323 395 416 110 417 
324 376 416 395 417 
325 305 382 190 418 
326 380 412 407 436 
327 118 423 396 426 
328 391 247 407 412 
329 376 394 392 395 
330 377 393 388 396 
331 239 112 395 416 
332 379 423 387 426 
333 388 389 377 396 
334 381 403 327 404 
335 105 391 232 407 
336 225 280 386 422 
337 356 380 314 413 
338 330 165 382 411 
339 345 409 333 417 
340 326 308 129 403 
341 396 423 379 426 
342 260 289 282 412 
343 366 381 370 414 
344 225 400 280 422 
345 381 414 355 415 
346 225 386 400 422 
347 409 417 376 418 
348 392 395 111 417 
349 239 416 395 424 
350 129 403 308 415 
351 235 395 108 430 
352 375 395 394 400 
353 370 414 381 415 
354 121 399 312 431 
355 356 380 413 419 
356 129 308 135 415 
357 346 327 403 404 
358 338 310 367 414 
359 382 409 385 416 
360 366 408 381 414 
361 274 391 402 412 
362 385 406 382 416 
363 121 312 389 431 
364 325 360 392 394 
365 331 382 397 434 
366 212 380 402 405 
367 366 370 381 415 
368 381 383 375 386 
369 307 404 198 414 
370 266 225 280 386 
371 325 333 342 418 
372 289 260 234 412 
373 184 388 302 405 
374 407 412 287 436 
375 128 155 110 417 
376 93 132 261 383 
377 217 167 394 420 
378 331 411 382 434 
379 189 398 382 432 
380 114 397 147 409 
381 272 398 241 406 
382 266 386 280 422 
383 307 198 339 414 
384 232 105 119 391 
385 381 386 375 404 
386 261 383 132 410 
387 376 395 392 417 
388 235 108 383 430 
389 390 318 428 434 
390 392 394 376 417 
391 366 381 410 415 
392 125 390 318 428 
393 114 385 397 409 
394 289 407 282 412 
395 380 407 287 436 
396 235 422 395 430 
397 93 219 108 383 
398 241 398 385 406 
399 195 386 231 408 
400 380 399 314 413 
401 325 394 392 417 
402 206 332 166 394 
403 162 212 405 419 
404 118 142 97 423 
405 108 219 235 383 
406 383 386 381 408 
407 160 254 384 425 
408 356 413 311 419 
409 331 382 323 397 
410 347 315 309 405 
411 177 382 189 398 
412 249 386 383 408 
413 220 108 235 395 
414 391 399 133 435 
415 191 382 406 418 
416 315 309 405 419 
417 259 402 391 435 
418 94 239 112 395 
419 249 408 383 410 
420 114 385 409 416 
421 261 219 93 383 
422 247 234 260 412 
423 375 383 381 403 
424 105 232 279 407 
425 189 382 411 432 
426 333 409 382 418 
427 162 200 212 419 
428 241 406 385 416 
429 397 428 318 434 
430 210 177 191 382 
431 203 194 386 408 
432 210 190 382 418 
433 392 394 360 427 
434 343 333 323 382 
435 274 247 391 412 
436 125 318 397 428 
437 343 382 305 418 
438 338 355 414 415 
439 191 382 177 406 
440 210 382 191 418 
441 323 382 333 409 
442 239 94 220 395 
443 256 229 180 393 
444 128 110 416 417 
445 128 416 409 417 
446 302 184 328 388 
447 206 306 332 394 
448 334 392 360 427 
449 232 119 246 391 
450 391 402 377 435 
451 312 297 100 389 
452 160 393 254 425 
453 345 333 325 417 
454 198 307 192 404 
455 377 399 391 435 
456 256 180 161 393 
457 323 331 343 382 
458 333 382 343 418 
459 237 239 395 424 
460 392 403 154 430 
461 383 408 381 410 
462 210 189 177 382 
463 349 306 167 394 
464 279 153 105 407 
465 220 94 108 395 
466 355 381 404 414 
467 386 375 420 422 
468 376 382 406 416 
469 380 391 407 412 
470 382 376 409 416 
471 260 279 232 407 
472 281 226 406 424 
473 223 97 115 387 
474 343 382 331 411 
475 380 405 212 419 
476 140 383 131 410 
477 242 223 115 387 
478 210 189 382 411 
479 223 97 387 423 
480 160 254 178 384 
481 210 382 165 411 
482 178 254 228 384 
483 400 420 375 422 
484 212 380 183 402 
485 235 383 422 430 
486 327 381 355 415 
487 256 393 161 437 
488 375 403 381 404 
489 315 356 309 419 
490 287 407 380 413 
491 312 100 121 389 
492 154 392 104 403 
493 327 403 381 415 
494 110 395 112 416 
495 166 218 394 433 
496 97 223 244 396 
497 249 383 275 410 
498 302 405 388 431 
499 328 184 163 388 
500 257 256 264 437 
501 394 395 376 400 
502 174 166 218 394 
503 108 148 93 383 
504 110 111 395 417 
505 232 391 247 407 
506 343 330 382 411 
507 118 97 396 423 
508 102 397 299 409 
509 320 401 390 429 
510 185 388 184 405 
511 281 238 226 424 
512 97 244 117 396 
513 223 396 97 423 
514 318 125 101 390 
515 176 398 227 406 
516 318 101 298 390 
517 296 137 340 413 
518 365 363 262 410 
519 263 230 182 412 
520 386 420 400 422 
521 382 397 385 409 
522 260 232 247 407 
523 296 99 137 413 
524 317 426 389 429 
525 203 386 194 404 
526 385 398 382 406 
527 326 327 308 403 
528 176 227 158 406 
529 325 360 334 392 
530 174 217 394 420 
531 145 122 396 435 
532 302 388 329 431 
533 167 174 217 394 
534 102 299 322 409 
535 332 166 394 418 
536 257 271 396 435 
537 336 306 349 394 
538 111 392 109 395 
539 327 308 403 415 
540 175 400 173 433 
541 167 306 206 394 
542 182 168 263 412 
543 221 240 95 385 
544 293 153 279 407 
545 148 383 108 430 
546 178 228 252 438 
547 178 252 159 438 
548 250 158 227 406 
549 178 384 228 438 
550 124 387 142 426 
551 320 426 317 429 
552 320 390 426 429 
553 321 390 320 401 
554 251 281 406 424 
555 378 385 382 397 
556 382 385 378 398 
557 240 113 95 385 
558 178 159 384 438 
559 356 311 337 419 
560 142 387 97 423 
561 262 363 408 410 
562 380 419 212 436 
563 388 405 185 437 
564 180 254 160 393 
565 164 401 348 429 
566 198 404 194 414 
567 180 229 254 393 
568 102 322 127 409 
569 289 287 407 412 
570 222 96 240 421 
571 275 383 261 410 
572 175 207 406 433 
573 118 396 389 426 
574 212 402 196 405 
575 161 393 180 437 
576 131 383 140 403 
577 159 432 384 438 
578 282 279 260 407 
579 357 317 329 388 
580 114 409 128 416 
581 257 393 256 437 
582 377 391 380 402 
583 317 388 357 429 
584 240 96 113 421 
585 380 391 377 399 
586 380 402 391 412 
587 251 406 241 416 
588 319 320 321 390 
589 186 303 163 388 
590 183 380 212 436 
591 121 99 296 399 
592 183 402 380 412 
593 121 296 312 399 
594 312 350 297 389 
595 124 390 387 426 
596 358 405 302 431 
597 409 416 376 417 
598 355 404 307 414 
599 221 385 95 416 
600 164 348 303 429 
601 169 199 362 414 
602 144 128 110 416 
603 237 416 239 424 
604 317 389 388 429 
605 382 398 177 406 
606 171 248 156 386 
607 230 402 182 412 
608 136 106 368 415 
609 323 397 382 409 
610 102 318 299 397 
611 306 342 332 394 
612 136 368 410 415 
613 99 296 399 413 
614 163 303 328 388 
615 358 302 329 431 
616 130 403 383 430 
617 109 395 392 430 
618 186 303 388 429 
619 332 394 342 418 
620 243 384 255 387 
621 261 275 219 383 
622 346 404 403 427 
623 256 161 230 402 
624 362 408 366 414 
625 164 303 186 429 
626 199 408 362 414 
627 318 102 125 397 
628 377 402 380 405 
629 193 386 404 420 
630 384 387 243 438 
631 378 397 382 434 
632 380 399 377 405 
633 225 248 171 386 
634 355 307 339 414 
635 293 279 282 407 
636 238 269 226 400 
637 161 182 230 402 
638 382 398 378 432 
639 198 192 194 404 
640 366 381 408 410 
641 218 174 394 433 
642 226 251 281 406 
643 312 350 389 431 
644 366 410 368 415 
645 406 416 251 424 
646 240 113 385 421 
647 166 174 206 394 
648 366 368 370 415 
649 136 410 131 415 
650 255 387 384 423 
651 359 321 401 434 
652 141 113 96 421 
653 378 382 411 434 
654 183 412 380 436 
655 400 420 173 433 
656 302 328 329 388 
657 110 155 111 417 
658 382 378 411 432 
659 238 400 226 424 
660 111 154 109 392 
661 193 386 203 404 
662 237 239 220 395 
663 256 402 264 437 
664 362 366 370 414 
665 338 355 310 414 
666 317 388 389 431 
667 242 268 223 387 
668 237 270 416 424 
669 284 134 286 407 
670 301 326 129 403 
671 123 100 297 426 
672 174 173 420 433 
673 104 392 301 403 
674 159 252 176 398 
675 268 223 387 423 
676 122 389 118 396 
677 167 206 174 394 
678 176 252 227 398 
679 194 408 199 414 
680 359 319 321 434 
681 157 173 175 400 
682 123 297 316 426 
683 194 199 169 414 
684 129 131 403 415 
685 141 385 113 421 
686 100 389 297 426 
687 166 394 418 433 
688 385 398 253 421 
689 188 304 164 401 
690 227 398 272 406 
691 156 195 203 386 
692 160 178 205 384 
693 159 179 384 432 
694 359 401 304 411 
695 317 329 388 431 
696 253 385 241 398 
697 237 270 239 416 
698 126 397 385 428 
699 142 115 97 387 
700 147 397 102 409 
701 114 385 126 397 
702 130 140 383 403 
703 391 399 380 407 
704 96 141 421 428 
705 116 387 124 390 
706 146 118 389 426 
707 178 159 179 384 
708 321 401 320 429 
709 387 390 116 428 
710 171 172 400 420 
711 191 418 406 433 
712 277 261 132 410 
713 129 135 131 415 
714 380 407 399 413 
715 245 393 257 396 
716 160 384 205 425 
717 109 392 154 430 
718 233 365 262 410 
719 130 154 403 430 
720 181 388 185 393 
721 96 387 116 421 
722 120 391 105 407 
723 114 128 144 416 
724 171 211 172 420 
725 359 401 411 434 
726 304 348 164 401 
727 298 101 316 426 
728 188 304 401 411 
729 358 313 315 405 
730 316 101 123 426 
731 270 251 241 416 
732 298 390 101 426 
733 187 384 179 401 
734 174 420 394 433 
735 104 301 129 403 
736 159 252 398 438 
737 193 211 386 420 
738 256 161 402 437 
739 140 132 383 410 
740 303 357 328 388 
741 303 357 388 429 
742 387 390 379 426 
743 185 393 388 437 
744 269 225 157 400 
745 203 386 195 408 
746 274 391 259 402 
747 389 396 379 426 
748 375 404 386 420 
749 325 342 360 394 
750 171 157 225 400 
751 136 131 106 415 
752 186 388 209 429 
753 250 227 272 406 
754 245 393 396 423 
755 171 156 211 386 
756 297 389 316 426 
757 399 405 313 431 
758 147 102 127 409 
759 327 355 338 415 
760 257 229 256 393 
761 209 186 163 388 
762 383 386 258 422 
763 141 126 385 428 
764 235 236 220 395 
765 379 426 390 429 
766 235 236 395 422 
767 389 426 379 429 
768 258 383 249 386 
769 167 192 349 404 
770 376 400 395 424 
771 177 398 176 406 
772 318 390 319 434 
773 360 394 336 427 
774 130 154 104 403 
775 331 323 344 397 
776 96 421 116 428 
777 284 107 134 407 
778 268 387 255 423 
779 187 384 401 425 
780 196 405 402 437 
781 299 397 323 409 
782 306 336 360 394 
783 253 267 385 421 
784 186 209 187 429 
785 331 397 344 434 
786 212 196 201 405 
787 277 132 151 410 
788 223 244 396 423 
789 268 243 255 387 
790 298 320 390 426 
791 125 139 390 428 
792 341 320 317 429 
793 382 409 376 418 
794 173 400 172 420 
795 116 421 387 428 
796 146 118 122 389 
797 110 111 109 395 
798 243 265 384 438 
799 141 385 421 428 
800 376 406 382 418 
801 181 388 393 425 
802 136 368 361 410 
803 122 145 133 435 
804 271 257 259 435 
805 93 140 132 383 
806 158 177 176 406 
807 231 386 249 408 
808 125 139 101 390 
809 324 301 143 392 
810 319 318 298 390 
811 174 173 172 420 
812 298 316 320 426 
813 112 110 94 395 
814 108 395 109 430 
815 177 189 204 398 
816 375 392 395 430 
817 316 317 320 426 
818 179 401 384 432 
819 209 425 187 429 
820 229 273 254 393 
821 346 403 335 427 
822 201 185 184 405 
823 193 167 217 420 
824 254 255 228 384 
825 148 140 383 430 
826 179 187 205 384 
827 163 184 185 388 
828 377 405 388 437 
829 147 128 114 409 
830 317 316 297 389 
831 251 416 270 424 
832 199 369 362 408 
833 301 403 392 427 
834 378 387 384 438 
835 272 253 241 398 
836 235 219 258 383 
837 144 110 112 416 
838 299 323 322 409 
839 105 120 119 391 
840 247 232 246 391 
841 175 250 226 406 
842 241 251 272 406 
843 204 398 189 432 
844 255 243 265 384 
845 114 126 147 397 
846 313 405 358 431 
847 316 389 317 426 
848 225 266 248 386 
849 121 138 99 399 
850 108 94 109 395 
851 103 127 300 409 
852 185 405 201 437 
853 253 267 241 385 
854 141 126 114 385 
855 280 400 238 422 
856 97 117 118 396 
857 284 294 150 413 
858 216 197 285 412 
859 96 116 141 428 
860 191 177 207 406 
861 235 383 258 422 
862 100 122 121 389 
863 107 407 284 413 
864 273 393 245 423 
865 349 192 307 404 
866 312 399 313 431 
867 159 398 432 438 
868 188 401 202 411 
869 250 175 158 406 
870 390 401 379 429 
871 241 385 221 416 
872 95 385 114 416 
873 96 115 116 387 
874 248 249 231 386 
875 221 112 239 416 
876 188 164 202 401 
877 257 245 273 393 
878 205 384 187 425 
879 134 105 153 407 
880 139 116 390 428 
881 375 394 392 427 
882 127 322 300 409 
883 236 395 422 424 
884 388 389 379 429 
885 318 344 397 434 
886 263 274 230 412 
887 193 203 194 404 
888 104 143 301 392 
889 99 149 137 413 
890 311 356 314 413 
891 314 296 340 413 
892 119 105 232 22 
893 221 95 112 416 
894 184 347 162 405 
895 300 103 409 417 
896 284 407 287 413 
897 185 208 393 437 
898 388 425 209 429 
899 208 161 180 437 
900 385 397 378 428 
901 406 418 376 433 
902 196 212 183 402 
903 335 346 327 403 
904 376 416 406 424 
905 304 359 321 401 
906 139 116 124 390 
907 181 185 208 393 
908 378 398 385 421 
909 253 421 398 438 
910 191 406 207 433 
911 395 416 376 424 
912 375 400 394 420 
913 295 216 285 412 
914 124 116 142 387 
915 151 372 277 410 
916 313 312 296 399 
917 142 118 124 426 
918 366 408 363 410 
919 12 108 235 220 
920 323 333 345 409 
921 314 399 296 413 
922 324 392 143 417 
923 394 420 400 433 
924 348 401 321 429 
925 193 404 167 420 
926 145 122 118 396 
927 326 129 39 301 
928 365 366 363 410 
929 299 318 344 397 
930 383 403 375 430 
931 387 421 243 438 
932 264 256 230 402 
933 94 239 13 112 
934 113 114 95 385 
935 221 241 240 385 
936 130 131 140 403 
937 259 274 247 391 
938 208 180 393 437 
939 161 230 57 256 
940 324 143 300 417 
941 209 185 181 388 
942 245 257 271 396 
943 233 249 275 410 
944 99 399 149 413 
945 108 93 11 219 
946 159 398 204 432 
947 180 160 181 393 
948 195 231 278 408 
949 236 280 238 422 
950 258 386 266 422 
951 168 182 183 412 
952 184 302 347 405 
953 365 277 372 410 
954 274 402 230 412 
955 297 30 312 100 
956 379 423 393 425 
957 287 282 289 407 
958 119 232 246 22 
959 230 161 57 182 
960 379 396 393 423 
961 220 239 13 94 
962 378 421 387 438 
963 160 181 393 425 
964 379 384 423 425 
965 220 12 108 94 
966 225 238 280 400 
967 130 383 140 430 
968 266 258 249 386 
969 325 392 324 417 
970 187 425 401 429 
971 235 108 11 219 
972 403 404 375 427 
973 195 278 214 408 
974 10 93 132 261 
975 148 130 140 430 
976 384 387 379 423 
977 209 388 181 425 
978 284 150 107 413 
979 275 249 258 383 
980 276 295 234 412 
981 210 165 189 411 
982 378 401 390 434 
983 244 117 396 435 
984 175 173 207 433 
985 182 402 183 412 
986 101 316 32 298 
987 211 203 193 386 
988 99 296 29 121 
989 340 296 28 137 
990 197 285 412 436 
991 316 101 32 123 
992 400 422 395 424 
993 120 407 107 413 
994 378 390 387 428 
995 375 386 383 422 
996 379 393 388 425 
997 204 159 176 398 
998 296 312 29 121 
999 99 28 296 137 
1000 102 318 34 299 
1001 246 391 119 435 
1002 140 131 136 410 
1003 104 39 129 301 
1004 121 312 30 100 
1005 324 38 143 301 
1006 93 10 219 261 
1007 317 389 350 431 
1008 395 400 375 422 
1009 31 297 123 100 
1010 298 318 33 101 
1011 202 187 179 401 
1012 244 98 117 435 
1013 125 33 318 101 
1014 318 102 34 125 
1015 224 98 244 435 
1016 388 405 377 431 
1017 297 316 31 123 
1018 182 58 263 168 
1019 301 335 403 427 
1020 103 300 143 417 
1021 284 287 290 413 
1022 58 263 230 182 
1023 379 401 384 425 
1024 276 216 295 412 
1025 25 284 134 286 
1026 376 424 406 433 
1027 221 14 239 112 
1028 294 351 150 413 
1029 176 227 51 158 
1030 224 98 119 21 
1031 243 387 242 421 
1032 278 373 214 408 
1033 274 259 264 402 
1034 138 133 149 399 
1035 307 355 346 404 
1036 384 401 378 432 
1037 223 245 244 423 
1038 201 405 196 437 
1039 195 156 46 248 
1040 119 246 224 21 
1041 269 238 225 400 
1042 98 224 119 435 
1043 112 221 14 95 
1044 394 400 376 433 
1045 394 375 420 427 
1046 212 419 170 436 
1047 245 396 244 423 
1048 317 350 329 431 
1049 244 97 19 223 
1050 240 16 96 222 
1051 115 97 223 18 
1052 115 96 17 222 
1053 322 102 35 299 
1054 15 221 240 95 
1055 227 250 51 158 
1056 71 305 165 190 
1057 375 403 392 430 
1058 246 119 224 435 
1059 376 418 394 433 
1060 202 411 401 432 
1061 231 195 46 248 
1062 385 378 421 428 
1063 263 216 276 412 
1064 240 16 113 96 
1065 18 223 115 242 
1066 113 15 240 95 
1067 97 244 19 117 
1068 222 17 115 242 
1069 398 421 378 438 
1070 180 56 229 256 
1071 104 143 38 301 
1072 125 397 126 428 
1073 324 325 334 392 
1074 339 307 76 198 
1075 305 330 71 165 
1076 117 244 20 98 
1077 224 20 244 98 
1078 240 385 267 421 
1079 180 56 256 161 
1080 176 52 227 252 
1081 52 176 159 252 
1082 178 160 54 254 
1083 228 53 178 252 
1084 228 178 54 254 
1085 229 55 180 254 
1086 159 178 53 252 
1087 160 180 55 254 
1088 348 321 303 429 
1089 127 102 35 322 
1090 263 168 216 412 
1091 192 76 307 198 
1092 236 237 395 424 
1093 163 186 67 303 
1094 402 405 377 437 
1095 179 202 401 432 
1096 388 393 377 437 
1097 253 398 252 438 
1098 156 171 47 248 
1099 67 163 303 328 
1100 125 102 126 397 
1101 227 252 253 398 
1102 301 335 326 403 
1103 222 240 267 421 
1104 120 107 149 413 
1105 143 392 111 417 
1106 330 188 165 411 
1107 362 369 366 408 
1108 143 37 324 300 
1109 49 226 269 175 
1110 304 321 348 401 
1111 343 331 330 411 
1112 222 243 242 421 
1113 228 384 265 438 
1114 140 136 132 410 
1115 329 328 357 388 
1116 162 184 65 347 
1117 157 49 269 175 
1118 404 420 375 427 
1119 228 265 252 438 
1120 25 284 107 134 
1121 151 361 372 410 
1122 161 196 182 402 
1123 294 290 351 413 
1124 392 403 375 427 
1125 220 236 237 395 
1126 144 95 114 416 
1127 365 233 277 410 
1128 304 188 330 411 
1129 270 241 221 416 
1130 36 127 322 300 
1131 172 157 171 400 
1132 215 169 371 414 
1133 127 36 103 300 
1134 37 143 103 300 
1135 338 91 364 367 
1136 166 418 218 433 
1137 100 146 389 426 
1138 161 196 402 437 
1139 349 307 336 404 
1140 85 234 289 260 
1141 300 409 345 417 
1142 302 65 184 347 
1143 194 203 199 408 
1144 175 50 250 158 
1145 341 317 357 429 
1146 171 47 248 225 
1147 320 319 298 390 
1148 50 250 226 175 
1149 234 247 274 412 
1150 155 128 103 417 
1151 214 373 369 408 
1152 286 293 282 407 
1153 213 292 288 419 
1154 260 289 85 282 
1155 310 371 367 414 
1156 295 289 234 412 
1157 128 409 103 417 
1158 179 205 178 384 
1159 377 405 399 431 
1160 175 207 158 406 
1161 377 389 388 431 
1162 361 368 366 410 
1163 360 342 306 394 
1164 378 411 401 434 
1165 328 66 163 184 
1166 101 390 124 426 
1167 117 145 396 435 
1168 244 396 271 435 
1169 351 290 311 413 
1170 82 262 365 363 
1171 367 338 91 310 
1172 165 330 70 188 
1173 119 391 133 435 
1174 259 391 246 435 
1175 242 243 268 387 
1176 167 193 192 404 
1177 72 305 190 418 
1178 311 88 337 290 
1179 334 301 392 427 
1180 265 228 255 384 
1181 344 323 299 397 
1182 184 328 66 302 
1183 133 119 120 391 
1184 259 247 246 391 
1185 322 345 300 409 
1186 387 421 378 428 
1187 333 343 305 418 
1188 141 114 113 385 
1189 241 267 240 385 
1190 190 166 72 418 
1191 188 330 70 304 
1192 296 314 313 399 
1193 146 122 100 389 
1194 401 411 378 432 
1195 72 332 305 418 
1196 250 251 226 406 
1197 177 204 176 398 
1198 193 194 192 404 
1199 261 277 233 410 
1200 127 103 128 409 
1201 401 425 379 429 
1202 110 109 94 395 
1203 376 400 424 433 
1204 106 43 136 368 
1205 72 166 332 418 
1206 326 335 327 403 
1207 285 289 295 412 
1208 233 275 261 410 
1209 132 136 151 410 
1210 183 212 170 436 
1211 199 169 362 79 
1212 229 257 273 393 
1213 139 124 101 390 
1214 100 123 146 426 
1215 353 371 310 414 
1216 297 350 317 389 
1217 361 151 136 410 
1218 349 167 306 206 
1219 321 320 341 429 
1220 111 104 154 392 
1221 75 307 349 192 
1222 117 145 118 396 
1223 275 258 219 383 
1224 131 130 129 403 
1225 104 129 130 403 
1226 292 354 337 419 
1227 196 183 182 402 
1228 364 374 352 415 
1229 115 142 116 387 
1230 167 75 349 192 
1231 199 203 195 408 
1232 332 73 206 166 
1233 289 412 285 436 
1234 290 294 284 413 
1235 245 271 244 396 
1236 120 105 134 407 
1237 325 300 345 417 
1238 170 212 200 419 
1239 174 172 217 420 
1240 181 208 180 393 
1241 371 169 362 414 
1242 189 411 202 432 
1243 185 209 163 388 
1244 384 432 378 438 
1245 336 404 346 427 
1246 210 191 190 418 
1247 270 221 239 416 
1248 120 134 107 407 
1249 213 288 170 419 
1250 388 379 425 429 
1251 88 283 337 290 
1252 95 144 112 416 
1253 214 369 199 408 
1254 284 286 287 407 
1255 187 202 164 401 
1256 227 253 272 398 
1257 147 126 102 397 
1258 188 202 189 411 
1259 157 172 173 400 
1260 236 238 237 424 
1261 301 324 334 392 
1262 315 302 358 405 
1263 375 395 422 430 
1264 338 364 352 415 
1265 237 251 270 424 
1266 306 332 73 206 
1267 374 106 152 415 
1268 338 308 327 415 
1269 300 325 324 417 
1270 371 353 215 414 
1271 143 104 111 392 
1272 148 140 93 383 
1273 346 336 307 404 
1274 167 349 74 206 
1275 224 244 271 435 
1276 117 98 145 435 
1277 207 177 158 406 
1278 43 361 136 368 
1279 162 201 184 405 
1280 291 288 283 436 
1281 200 354 213 419 
1282 168 197 216 412 
1283 365 233 262 82 
1284 378 390 428 434 
1285 311 314 340 413 
1286 368 364 370 415 
1287 306 74 349 206 
1288 162 212 201 405 
1289 291 289 285 436 
1290 234 86 295 276 
1291 359 411 331 434 
1292 135 308 352 415 
1293 195 214 199 408 
1294 103 111 155 417 
1295 266 249 248 386 
1296 251 237 281 424 
1297 262 231 249 408 
1298 332 342 333 418 
1299 370 367 362 414 
1300 345 322 323 409 
1301 375 422 383 430 
1302 362 199 79 369 
1303 215 339 198 414 
1304 302 315 347 405 
1305 103 143 111 417 
1306 334 335 301 427 
1307 231 262 278 408 
1308 263 276 234 412 
1309 215 353 339 414 
1310 150 137 107 413 
1311 292 337 283 419 
1312 149 107 137 413 
1313 369 363 366 408 
1314 288 419 283 436 
1315 152 135 352 415 
1316 137 27 340 150 
1317 191 218 418 433 
1318 354 200 309 419 
1319 374 368 106 415 
1320 378 428 397 434 
1321 203 211 156 386 
1322 101 124 123 426 
1323 98 119 133 435 
1324 259 246 224 435 
1325 62 288 213 292 
1326 312 313 350 431 
1327 128 147 127 409 
1328 263 234 274 412 
1329 250 272 251 406 
1330 263 216 59 276 
1331 183 197 412 436 
1332 191 218 166 418 
1333 165 188 189 411 
1334 331 359 304 411 
1335 183 197 168 412 
1336 218 173 174 433 
1337 373 363 369 408 
1338 216 263 59 168 
1339 286 282 287 407 
1340 105 279 232 23 
1341 99 138 149 399 
1342 63 213 200 354 
1343 374 152 352 415 
1344 398 378 432 438 
1345 351 311 340 413 
1346 26 294 150 284 
1347 27 351 340 150 
1348 303 321 341 429 
1349 124 118 146 426 
1350 274 264 230 402 
1351 185 201 196 437 
1352 334 360 336 427 
1353 292 354 89 337 
1354 279 105 153 23 
1355 372 361 365 410 
1356 371 215 78 169 
1357 243 421 253 438 
1358 318 319 344 434 
1359 292 213 354 419 
1360 170 419 288 436 
1361 284 150 26 107 
1362 273 245 255 423 
1363 289 234 86 295 
1364 169 198 194 414 
1365 354 200 63 309 
1366 373 278 83 363 
1367 304 330 331 411 
1368 277 9 132 261 
1369 288 170 62 213 
1370 366 365 361 410 
1371 285 216 60 197 
1372 286 134 24 153 
1373 267 253 243 421 
1374 367 371 362 414 
1375 231 45 195 278 
1376 60 295 216 285 
1377 160 205 181 425 
1378 78 362 371 169 
1379 367 310 92 371 
1380 9 132 151 277 
1381 337 89 292 283 
1382 159 204 179 432 
1383 214 195 45 278 
1384 305 332 333 418 
1385 81 277 372 365 
1386 293 286 24 153 
1387 238 281 237 424 
1388 145 98 133 435 
1389 259 224 271 435 
1390 83 278 262 363 
1391 352 135 41 308 
1392 135 106 131 415 
1393 190 191 166 418 
1394 215 198 169 414 
1395 355 339 310 414 
1396 125 126 139 428 
1397 193 172 211 420 
1398 374 352 90 364 
1399 260 282 84 279 
1400 148 108 109 430 
1401 303 341 357 429 
1402 41 152 135 352 
1403 364 352 90 338 
1404 353 310 339 414 
1405 235 258 236 422 
1406 292 283 288 419 
1407 365 81 277 233 
1408 364 368 374 415 
1409 152 42 106 374 
1410 336 346 335 427 
1411 337 309 356 419 
1412 282 84 279 293 
1413 214 80 369 373 
1414 353 92 310 371 
1415 352 308 338 415 
1416 42 106 374 368 
1417 193 217 172 420 
1418 289 234 85 86 
1419 135 152 106 415 
1420 258 266 280 422 
1421 87 290 311 351 
1422 61 285 197 436 
1423 22 105 232 23 
1424 209 181 187 425 
1425 265 243 253 438 
1426 351 87 290 294 
1427 296 29 28 99 
1428 191 207 173 433 
1429 372 151 44 361 
1430 170 288 61 436 
1431 200 213 170 419 
1432 230 57 58 182 
1433 267 243 222 421 
1434 215 198 339 77 
1435 191 173 218 433 
1436 183 170 197 436 
1437 38 39 104 301 
1438 268 245 223 423 
1439 10 11 93 219 
1440 339 353 215 77 
1441 11 108 235 12 
1442 13 12 220 94 
1443 309 337 354 419 
1444 61 288 285 436 
1445 268 255 245 423 
1446 58 59 263 168 
1447 80 369 199 214 
1448 126 141 116 428 
1449 129 39 40 326 
1450 319 359 331 434 
1451 161 208 196 437 
1452 21 119 246 22 
1453 284 26 25 107 
1454 298 33 32 101 
1455 361 151 44 136 
1456 196 208 185 437 
1457 265 253 252 438 
1458 170 61 197 436 
1459 49 50 226 175 
1460 106 42 43 368 
1461 179 189 202 432 
1462 28 27 340 137 
1463 297 31 30 100 
1464 103 36 37 300 
1465 329 313 358 431 
1466 135 40 41 308 
1467 32 31 316 123 
1468 184 66 65 302 
1469 374 152 4 352 
1470 5 214 278 373 
1471 2 279 293 153 
1472 64 63 200 309 
1473 195 46 45 231 
1474 169 78 362 79 
1475 205 187 181 425 
1476 14 13 239 112 
1477 156 47 46 248 
1478 1 151 372 277 
1479 6 295 276 216 
1480 294 351 3 150 
1481 371 353 8 215 
1482 123 124 146 426 
1483 62 61 170 288 
1484 171 47 225 48 
1485 102 34 35 299 
1486 221 15 14 95 
1487 19 223 97 18 
1488 17 96 16 222 
1489 30 29 312 121 
1490 91 364 90 338 
1491 336 335 334 427 
1492 292 213 7 354 
1493 75 76 307 192 
1494 70 69 188 304 
1495 283 337 89 88 
1496 98 224 20 21 
1497 318 34 33 125 
1498 57 256 56 161 
1499 109 154 130 430 
1500 51 52 227 176 
1501 52 159 53 252 
1502 160 55 54 254 
1503 178 54 53 228 
1504 180 56 55 229 
1505 163 67 66 328 
1506 285 60 61 197 
1507 258 280 236 422 
1508 91 367 310 92 
1509 186 68 67 303 
1510 319 331 344 434 
1511 126 116 139 428 
1512 16 15 240 113 
1513 17 18 115 242 
1514 20 244 117 19 
1515 72 73 332 166 
1516 204 189 179 432 
1517 85 260 282 84 
1518 82 83 262 363 
1519 305 71 72 190 
1520 50 51 250 158 
1521 329 350 313 431 
1522 134 24 25 286 
1523 290 311 88 87 
1524 233 365 81 82 
1525 9 10 132 261 
1526 162 65 64 347 
1527 330 70 71 165 
1528 127 35 36 322 
1529 37 38 143 324 
1530 285 288 291 436 
1531 198 76 339 77 
1532 48 49 269 157 
1533 293 24 2 153 
1534 215 353 8 77 
1535 295 6 60 216 
1536 153 2 279 23 
1537 41 4 152 352 
1538 5 214 45 278 
1539 373 278 5 83 
1540 279 84 2 293 
1541 109 130 148 430 
1542 361 44 43 136 
1543 199 79 369 80 
1544 151 1 9 277 
1545 4 374 352 90 
1546 214 5 80 373 
1547 151 44 1 372 
1548 6 276 59 216 
1549 351 27 3 150 
1550 8 92 353 371 
1551 73 74 306 206 
1552 74 75 349 167 
1553 63 7 213 354 
1554 351 3 87 294 
1555 69 68 164 348 
1556 152 4 42 374 
1557 277 372 1 81 
1558 3 26 294 150 
1559 295 86 6 276 
1560 7 292 354 89 
1561 8 371 215 78 
1562 213 7 62 292 
1563 399 122 121 138 
1564 399 121 122 389 
1565 404 327 355 346 
1566 404 355 327 381 
1567 195 248 386 156 
1568 386 248 195 231 
1569 405 314 313 315 
1570 405 313 314 399 
1571 436 419 287 380 
1572 419 413 287 380 
1573 421 96 115 222 
1574 115 96 421 387 
1575 115 242 421 222 
1576 421 242 115 387 
1577 164 303 68 186 
1578 68 303 164 348 
1579 429 164 187 186 
1580 429 187 164 401 
1581 413 120 399 149 
1582 413 399 120 407 
1583 391 120 399 407 
1584 238 422 424 236 
1585 424 422 238 400 
1586 434 321 390 319 
1587 434 390 321 401 
1588 129 308 40 135 
1589 129 40 308 326 
1590 436 289 287 291 
1591 436 287 289 412 
1592 269 175 400 157 
1593 400 175 269 226 
1594 410 262 249 408 
1595 410 249 262 233 
1596 286 153 407 134 
1597 407 153 286 293 
1598 225 157 48 269 
1599 48 157 225 171 
1600 304 164 69 188 
1601 304 69 164 348 
1602 290 413 419 311 
1603 419 337 290 311 
1604 290 337 419 283 
1605 340 150 413 137 
1606 413 150 340 351 
1607 283 436 287 291 
1608 287 436 283 419 
1609 363 278 408 373 
1610 363 408 278 262 
1611 419 315 380 405 
1612 419 380 315 356 
1613 314 380 315 405 
1614 314 315 380 356 
1615 200 162 309 419 
1616 405 162 309 347 
1617 405 309 162 419 
1618 120 399 133 391 
1619 120 133 399 149 
1620 419 290 287 413 
1621 287 290 419 283 
1622 162 309 64 200 
1623 162 64 309 347 
$EndElements
