$MeshFormat
4.1 0 8
$EndMeshFormat
$PhysicalNames
3
2 13 "clamp"
2 14 "load"
3 1 "Cube_Volume"
$EndPhysicalNames
$Entities
8 12 6 1
1 0 0 5 0 
2 0 0 0 0 
3 0 5 5 0 
4 0 5 0 0 
5 5 0 5 0 
6 5 0 0 0 
7 5 5 5 0 
8 5 5 0 0 
1 -1e-07 -1e-07 -9.999999983634211e-08 1e-07 1e-07 5.0000001 0 2 2 -1 
2 -1e-07 -9.999999983634211e-08 4.9999999 1e-07 5.0000001 5.0000001 0 2 1 -3 
3 -1e-07 4.9999999 -9.999999983634211e-08 1e-07 5.0000001 5.0000001 0 2 4 -3 
4 -1e-07 -9.999999983634211e-08 -1e-07 1e-07 5.0000001 1e-07 0 2 2 -4 
5 4.9999999 -1e-07 -9.999999983634211e-08 5.0000001 1e-07 5.0000001 0 2 6 -5 
6 4.9999999 -9.999999983634211e-08 4.9999999 5.0000001 5.0000001 5.0000001 0 2 5 -7 
7 4.9999999 4.9999999 -9.999999983634211e-08 5.0000001 5.0000001 5.0000001 0 2 8 -7 
8 4.9999999 -9.999999983634211e-08 -1e-07 5.0000001 5.0000001 1e-07 0 2 6 -8 
9 -9.999999983634211e-08 -1e-07 -1e-07 5.0000001 1e-07 1e-07 0 2 2 -6 
10 -9.999999983634211e-08 -1e-07 4.9999999 5.0000001 1e-07 5.0000001 0 2 1 -5 
11 -9.999999983634211e-08 4.9999999 -1e-07 5.0000001 5.0000001 1e-07 0 2 4 -8 
12 -9.999999983634211e-08 4.9999999 4.9999999 5.0000001 5.0000001 5.0000001 0 2 3 -7 
1 -1e-07 -9.999999983634211e-08 -9.999999983634211e-08 1e-07 5.0000001 5.0000001 0 4 -1 4 3 -2 
2 4.9999999 -9.999999983634211e-08 -9.999999983634211e-08 5.0000001 5.0000001 5.0000001 0 4 -5 8 7 -6 
3 -9.999999983634211e-08 -1e-07 -9.999999983634211e-08 5.0000001 1e-07 5.0000001 1 13 4 -9 1 10 -5 
4 -9.999999983634211e-08 4.9999999 -9.999999983634211e-08 5.0000001 5.0000001 5.0000001 1 14 4 -11 3 12 -7 
5 -9.999999983634211e-08 -9.999999983634211e-08 -1e-07 5.0000001 5.0000001 1e-07 0 4 -4 9 8 -11 
6 -9.999999983634211e-08 -9.999999983634211e-08 4.9999999 5.0000001 5.0000001 5.0000001 0 4 -2 10 6 -12 
1 -9.999999983634211e-08 -9.999999983634211e-08 -9.999999983634211e-08 5.0000001 5.0000001 5.0000001 1 1 6 -1 2 -3 4 -5 6 
$EndEntities
$Nodes
27 235 1 235
0 1 0 1
1
0 0 5
0 2 0 1
2
0 0 0
0 3 0 1
3
0 5 5
0 4 0 1
4
0 5 0
0 5 0 1
5
5 0 5
0 6 0 1
6
5 0 0
0 7 0 1
7
5 5 5
0 8 0 1
8
5 5 0
1 1 0 4
9
10
11
12
0 0 1
0 0 2
0 0 3
0 0 4
1 2 0 4
13
14
15
16
0 1 5
0 2 5
0 3 5
0 4 5
1 3 0 4
17
18
19
20
0 5 1
0 5 2
0 5 3
0 5 4
1 4 0 4
21
22
23
24
0 1 0
0 2 0
0 3 0
0 4 0
1 5 0 4
25
26
27
28
5 0 1
5 0 2
5 0 3
5 0 4
1 6 0 4
29
30
31
32
5 1 5
5 2 5
5 3 5
5 4 5
1 7 0 4
33
34
35
36
5 5 1
5 5 2
5 5 3
5 5 4
1 8 0 4
37
38
39
40
5 1 0
5 2 0
5 3 0
5 4 0
1 9 0 4
41
42
43
44
1 0 0
2 0 0
3 0 0
4 0 0
1 10 0 4
45
46
47
48
1 0 5
2 0 5
3 0 5
4 0 5
1 11 0 4
49
50
51
52
1 5 0
2 5 0
3 5 0
4 5 0
1 12 0 4
53
54
55
56
1 5 5
2 5 5
3 5 5
4 5 5
2 1 0 24
57
58
59
60
61
62
63
64
65
66
67
68
69
70
71
72
73
74
75
76
77
78
79
80
0 4.338119784648299 2.530407742065421
0 0.8660254037844386 2.5
0 2.556674571293667 0.8185330602412858
0 2.556674571293667 4.181466939758714
0 0.8467720450558318 1.504237369280876
0 1.64716198258741 1.982244292230488
0 1.636222738211934 3.015502651354739
0 2.598076211353316 2.499999999999999
0 0.8481155325734534 3.497645885547445
0 3.499432116976144 0.8469107173838683
0 3.499432116976144 4.153089282616133
0 4.067360928262858 3.421077193411223
0 1.581952675513018 0.9412258104503012
0 1.571569353839583 4.088311474745034
0 4.137576786939674 1.570386569529884
0 3.06309642562596 3.392692830380432
0 3.053427906241974 1.656387044983293
0 3.41207850754179 2.615539990974387
0 4.267949192431124 4.267949192431124
0 0.7320508075688774 4.267949192431122
0 0.7320508075688776 0.7320508075688774
0 4.267949192431122 0.7320508075688776
0 2.291009322085341 1.551515143830581
0 2.291009322085342 3.448484856169419
2 2 0 24
81
82
83
84
85
86
87
88
89
90
91
92
93
94
95
96
97
98
99
100
101
102
103
104
5 2.556674571293667 4.181466939758714
5 2.556674571293667 0.8185330602412858
5 4.338119784648299 2.530407742065421
5 0.8660254037844386 2.5
5 0.8467720450558318 1.504237369280876
5 1.64716198258741 1.982244292230488
5 1.636222738211934 3.015502651354739
5 2.598076211353316 2.499999999999999
5 0.8481155325734534 3.497645885547445
5 3.499432116976144 0.8469107173838683
5 3.499432116976144 4.153089282616133
5 4.067360928262858 3.421077193411223
5 1.581952675513018 0.9412258104503012
5 1.571569353839583 4.088311474745034
5 4.137576786939674 1.570386569529884
5 3.06309642562596 3.392692830380432
5 3.053427906241974 1.656387044983293
5 3.41207850754179 2.615539990974387
5 4.267949192431124 4.267949192431124
5 0.7320508075688774 4.267949192431122
5 0.7320508075688776 0.7320508075688774
5 4.267949192431122 0.7320508075688776
5 2.291009322085341 1.551515143830581
5 2.291009322085342 3.448484856169419
2 3 0 24
105
106
107
108
109
110
111
112
113
114
115
116
117
118
119
120
121
122
123
124
125
126
127
128
2.540166509861514 0 4.181505525181567
2.556674571293667 0 0.8185330602412859
0.8613067098656106 0 2.491826982387224
4.332457351945705 0 2.54025992172507
0.8464854382823366 0 1.503740951787389
1.646327765805356 0 1.980799386379444
1.622340012567547 0 3.001052330063196
2.598076211353315 0 2.500000000000001
3.499432116976144 0 0.8469107173838683
4.059544979888688 0 3.423825435843588
1.553355787589688 0 4.07401519719147
3.470165505392091 0 4.191284410818625
4.127398002285677 0 1.579450474660993
0.7948422195986202 0 3.472473950345503
1.581792557862225 0 0.9409484785439396
3.073102604629763 0 1.658111816510903
3.054099126398262 0 3.399604665977679
3.411515384252419 0 2.617019385819807
0.7320508075688765 0 4.267949192431124
4.267949192431124 0 4.267949192431124
0.7320508075688775 0 0.7320508075688775
4.267949192431122 0 0.7320508075688774
2.29100932208534 0 1.551515143830581
2.29061614810953 0 3.448751121073604
2 4 0 24
129
130
131
132
133
134
135
136
137
138
139
140
141
142
143
144
145
146
147
148
149
150
151
152
2.540166509861514 5 4.181505525181567
2.556674571293667 5 0.8185330602412859
0.8613067098656106 5 2.491826982387224
4.332457351945705 5 2.54025992172507
0.8464854382823366 5 1.503740951787389
1.646327765805356 5 1.980799386379444
1.622340012567547 5 3.001052330063196
2.598076211353315 5 2.500000000000001
3.499432116976144 5 0.8469107173838683
4.059544979888688 5 3.423825435843588
1.553355787589688 5 4.07401519719147
3.470165505392091 5 4.191284410818625
4.127398002285677 5 1.579450474660993
0.7948422195986202 5 3.472473950345503
1.581792557862225 5 0.9409484785439396
3.073102604629763 5 1.658111816510903
3.054099126398262 5 3.399604665977679
3.411515384252419 5 2.617019385819807
0.7320508075688765 5 4.267949192431124
4.267949192431124 5 4.267949192431124
0.7320508075688775 5 0.7320508075688775
4.267949192431122 5 0.7320508075688774
2.29100932208534 5 1.551515143830581
2.29061614810953 5 3.448751121073604
2 5 0 24
153
154
155
156
157
158
159
160
161
162
163
164
165
166
167
168
169
170
171
172
173
174
175
176
4.332457351945705 2.540259921725069 0
0.8660254037844386 2.5 0
2.556674571293667 0.8185330602412858 0
2.54833952747429 4.186224219100394 0
0.8467720450558318 1.504237369280876 0
1.64716198258741 1.982244292230488 0
1.636157209215965 3.01554702883877 0
2.598076211353316 2.499999999999999 0
0.8481126896175684 3.497647810851312 0
3.499432116976144 0.8469107173838683 0
4.059544979888688 3.423825435843588 0
1.581952675513018 0.9412258104503012 0
3.471138483679325 4.191846160094676 0
1.570671742640905 4.088828806075008 0
4.127398002285678 1.579450474660993 0
3.073102604629764 1.658111816510903 0
3.055623459048264 3.400484739843491 0
3.411581516968389 2.617057567561172 0
4.267949192431124 4.267949192431124 0
0.7320508075688774 4.267949192431122 0
0.7320508075688776 0.7320508075688774 0
4.267949192431122 0.7320508075688776 0
2.291009322085341 1.551515143830581 0
2.29061614810953 3.448751121073603 0
2 6 0 24
177
178
179
180
181
182
183
184
185
186
187
188
189
190
191
192
193
194
195
196
197
198
199
200
4.332457351945705 2.540259921725069 5
0.8660254037844386 2.5 5
2.556674571293667 0.8185330602412858 5
2.54833952747429 4.186224219100394 5
0.8467720450558318 1.504237369280876 5
1.64716198258741 1.982244292230488 5
1.636157209215965 3.01554702883877 5
2.598076211353316 2.499999999999999 5
0.8481126896175684 3.497647810851312 5
3.499432116976144 0.8469107173838683 5
4.059544979888688 3.423825435843588 5
1.581952675513018 0.9412258104503012 5
3.471138483679325 4.191846160094676 5
1.570671742640905 4.088828806075008 5
4.127398002285678 1.579450474660993 5
3.073102604629764 1.658111816510903 5
3.055623459048264 3.400484739843491 5
3.411581516968389 2.617057567561172 5
4.267949192431124 4.267949192431124 5
0.7320508075688774 4.267949192431122 5
0.7320508075688776 0.7320508075688774 5
4.267949192431122 0.7320508075688776 5
2.291009322085341 1.551515143830581 5
2.29061614810953 3.448751121073603 5
3 1 0 35
201
202
203
204
205
206
207
208
209
210
211
212
213
214
215
216
217
218
219
220
221
222
223
224
225
226
227
228
229
230
231
232
233
234
235
2.5 2.5 2.5
3.430280617725992 3.431880985937258 3.43150590222984
3.43923915479965 1.569072419814384 3.428637527615076
3.433416803737382 3.429754253361101 1.568425077085884
1.790627659057183 1.50012344065348 3.500012132764989
1.884025725758708 3.505584327668091 3.505584327668092
1.791422881399647 1.49997696252651 1.49997696252651
1.791485692419591 3.50006407534298 1.500071289552932
3.383951603736139 1.561304264009528 1.561304264009529
1.234193217908264 2.146117206877026 2.499725832384221
1.168304679082774 2.53325428666016 3.775320008392478
3.757880356410499 2.348164817909891 2.481460971202125
2.654514044546686 2.496238121066028 3.745862127810678
2.633213348936873 2.51724640338819 1.253302235579483
2.651848110954763 3.745966713677244 2.498292741609333
1.164226405892165 2.500055079879202 1.18486443322702
2.635431807094012 1.253389266767922 2.519248451302422
3.920457325424481 3.917430902560542 2.500232505009516
3.869757378730216 2.485246599735671 1.060084840948364
1.174444021389998 3.800957244197253 2.532614259726251
3.874717580613106 2.501800725076014 3.944292351177643
1.400341084397539 1.01192265169954 2.461397515732726
3.94244992715012 1.241164016440215 2.480601432684602
0.999664062200418 3.914376424702296 4.000996097863669
2.653748004775206 3.953154885327262 1.044473423207644
2.656479774628553 1.045918475238514 3.95189137805191
2.625760760506632 1.036299843238989 1.036299843238989
2.70564825361575 3.976255252179086 3.975840539731922
0.9700306718403244 3.909911539737891 0.9693378615921655
0.969133762767397 0.9693341696901583 1.0914135536088
0.9751186500976551 0.9535408147386998 3.886920064168319
3.883800718238727 4.076612600480642 4.076195383161587
3.905758330049057 0.9371335452956581 0.937133545295658
3.885387880160355 4.064008065406539 0.917661887572892
3.884919134133145 0.9167620421330648 4.064557001924142
$EndNodes
$Elements
3 865 1 1065
2 3 2 66
934 1 12 123 
935 45 1 123 
936 9 2 125 
937 2 41 125 
938 28 5 124 
939 5 48 124 
940 6 25 126 
941 44 6 126 
942 10 9 109 
943 109 9 125 
944 11 10 107 
945 107 10 109 
946 12 11 118 
947 11 107 118 
948 12 118 123 
949 25 26 117 
950 25 117 126 
951 26 27 108 
952 26 108 117 
953 27 28 114 
954 108 27 114 
955 114 28 124 
956 41 42 119 
957 41 119 125 
958 42 43 106 
959 42 106 119 
960 43 44 113 
961 106 43 113 
962 113 44 126 
963 46 45 115 
964 115 45 123 
965 47 46 105 
966 105 46 115 
967 48 47 116 
968 47 105 116 
969 48 116 124 
970 105 115 128 
971 116 105 121 
972 121 105 128 
973 106 113 120 
974 119 106 127 
975 106 120 127 
976 107 109 110 
977 107 110 111 
978 107 111 118 
979 108 114 122 
980 117 108 122 
981 110 109 119 
982 119 109 125 
983 111 110 112 
984 112 110 127 
985 110 119 127 
986 111 112 128 
987 111 115 118 
988 115 111 128 
989 112 120 122 
990 120 112 127 
991 121 112 122 
992 112 121 128 
993 113 117 120 
994 117 113 126 
995 114 116 121 
996 116 114 124 
997 114 121 122 
998 118 115 123 
999 120 117 122 
2 4 2 66
1000 3 147 20 
1001 53 147 3 
1002 17 149 4 
1003 4 149 49 
1004 36 148 7 
1005 7 148 56 
1006 8 150 33 
1007 52 150 8 
1008 18 133 17 
1009 133 149 17 
1010 19 131 18 
1011 131 133 18 
1012 20 142 19 
1013 19 142 131 
1014 20 147 142 
1015 33 141 34 
1016 33 150 141 
1017 34 132 35 
1018 34 141 132 
1019 35 138 36 
1020 132 138 35 
1021 138 148 36 
1022 49 143 50 
1023 49 149 143 
1024 50 130 51 
1025 50 143 130 
1026 51 137 52 
1027 130 137 51 
1028 137 150 52 
1029 54 139 53 
1030 139 147 53 
1031 55 129 54 
1032 129 139 54 
1033 56 140 55 
1034 55 140 129 
1035 56 148 140 
1036 129 152 139 
1037 140 145 129 
1038 145 152 129 
1039 130 144 137 
1040 143 151 130 
1041 130 151 144 
1042 131 134 133 
1043 131 135 134 
1044 131 142 135 
1045 132 146 138 
1046 141 146 132 
1047 134 143 133 
1048 143 149 133 
1049 135 136 134 
1050 136 151 134 
1051 134 151 143 
1052 135 152 136 
1053 135 142 139 
1054 139 152 135 
1055 136 146 144 
1056 144 151 136 
1057 145 146 136 
1058 136 152 145 
1059 137 144 141 
1060 141 150 137 
1061 138 145 140 
1062 140 148 138 
1063 138 146 145 
1064 142 147 139 
1065 144 146 141 
3 1 4 733
1 73 210 216 220 
2 206 201 210 220 
3 208 210 201 220 
4 208 216 210 220 
5 201 210 208 216 
6 210 211 206 220 
7 201 214 207 216 
8 201 208 214 216 
9 201 207 210 216 
10 73 216 208 220 
11 211 220 72 224 
12 206 210 201 211 
13 201 215 208 220 
14 201 206 215 220 
15 205 201 211 213 
16 73 64 210 220 
17 205 201 210 211 
18 206 211 201 213 
19 62 210 207 216 
20 205 210 63 211 
21 205 211 63 231 
22 62 216 207 230 
23 202 212 96 221 
24 206 220 211 224 
25 73 220 208 229 
26 204 212 97 218 
27 63 210 205 222 
28 63 222 205 231 
29 207 210 62 222 
30 212 215 202 218 
31 207 222 62 230 
32 204 215 212 218 
33 103 209 212 219 
34 208 216 73 229 
35 201 202 212 215 
36 127 217 207 222 
37 201 212 204 215 
38 209 214 207 217 
39 201 207 214 217 
40 145 202 215 218 
41 120 209 217 223 
42 65 118 58 222 
43 104 212 203 221 
44 65 118 222 231 
45 182 205 211 213 
46 201 214 209 217 
47 97 212 204 219 
48 103 209 86 212 
49 63 211 80 231 
50 74 72 64 220 
51 169 204 214 219 
52 134 208 215 220 
53 193 213 202 221 
54 107 58 118 222 
55 183 211 206 213 
56 207 214 158 216 
57 182 181 211 231 
58 70 80 211 231 
59 93 209 103 219 
60 208 214 204 215 
61 182 211 205 231 
62 205 213 203 217 
63 199 205 182 213 
64 158 207 175 214 
65 104 96 212 221 
66 134 208 151 215 
67 206 135 215 220 
68 201 214 208 215 
69 202 213 206 215 
70 206 213 201 215 
71 62 79 216 230 
72 201 213 205 217 
73 127 207 217 227 
74 202 201 212 213 
75 159 214 208 216 
76 202 201 213 215 
77 207 175 214 227 
78 109 61 107 222 
79 135 152 206 215 
80 199 205 213 226 
81 151 215 208 225 
82 183 206 200 213 
83 128 111 205 217 
84 69 216 79 230 
85 159 176 208 214 
86 104 87 203 212 
87 144 215 204 218 
88 58 107 61 222 
89 202 213 212 221 
90 201 204 212 214 
91 182 211 183 213 
92 111 205 217 222 
93 133 134 220 229 
94 208 220 134 229 
95 203 221 192 235 
96 201 204 214 215 
97 109 61 222 230 
98 110 217 127 222 
99 63 65 222 231 
100 201 203 213 217 
101 176 208 214 225 
102 128 217 205 226 
103 110 127 207 222 
104 94 104 203 221 
105 181 70 211 231 
106 73 210 79 216 
107 134 215 135 220 
108 200 213 206 228 
109 201 210 207 217 
110 203 213 192 221 
111 212 214 204 219 
112 193 202 213 228 
113 202 145 215 228 
114 152 206 215 228 
115 139 224 206 228 
116 168 214 209 219 
117 93 86 103 209 
118 63 65 58 222 
119 121 203 217 226 
120 169 214 204 225 
121 207 216 158 230 
122 168 219 209 233 
123 201 205 210 217 
124 159 158 214 216 
125 206 224 190 228 
126 86 223 209 233 
127 212 213 203 221 
128 92 96 202 218 
129 157 158 216 230 
130 145 138 202 218 
131 86 85 223 233 
132 61 62 222 230 
133 70 63 80 231 
134 60 67 185 211 
135 169 163 204 219 
136 80 210 64 211 
137 62 69 79 230 
138 139 190 224 228 
139 72 80 64 211 
140 203 212 201 213 
141 66 59 161 216 
142 193 202 187 221 
143 209 214 212 219 
144 86 212 209 223 
145 68 72 220 224 
146 120 217 209 227 
147 168 209 214 227 
148 79 210 62 216 
149 80 63 210 211 
150 201 212 209 214 
151 114 203 121 235 
152 67 185 211 224 
153 169 204 163 234 
154 144 204 215 225 
155 192 213 203 226 
156 193 213 200 228 
157 66 216 161 229 
158 104 87 94 203 
159 98 97 212 218 
160 152 215 145 228 
161 89 223 114 235 
162 205 226 188 231 
163 145 202 138 232 
164 187 202 193 232 
165 93 86 209 233 
166 135 220 206 224 
167 208 225 166 229 
168 143 225 208 229 
169 178 60 185 211 
170 178 181 70 211 
171 115 226 205 231 
172 97 103 212 219 
173 209 219 93 233 
174 58 61 62 222 
175 207 217 210 222 
176 92 202 96 232 
177 204 219 163 234 
178 154 161 59 216 
179 114 223 203 235 
180 73 64 79 210 
181 120 127 217 227 
182 210 217 205 222 
183 187 221 202 232 
184 168 214 175 227 
185 115 188 226 231 
186 169 176 214 225 
187 94 221 203 235 
188 143 166 225 229 
189 87 94 203 235 
190 121 217 128 226 
191 135 142 220 224 
192 157 216 69 230 
193 122 121 203 217 
194 203 201 212 217 
195 89 84 108 223 
196 203 213 205 226 
197 182 183 184 213 
198 202 218 138 232 
199 145 215 146 218 
200 70 60 178 211 
201 120 117 209 223 
202 205 217 203 226 
203 87 203 212 223 
204 131 142 57 220 
205 209 212 201 217 
206 208 215 204 225 
207 90 163 219 234 
208 203 122 217 223 
209 144 215 151 225 
210 135 134 136 215 
211 199 213 192 226 
212 204 214 208 225 
213 164 227 207 230 
214 117 209 223 233 
215 91 221 187 232 
216 68 220 142 224 
217 104 96 88 212 
218 92 218 202 232 
219 120 217 122 223 
220 159 158 160 214 
221 141 218 204 234 
222 183 206 211 224 
223 180 190 129 228 
224 152 139 206 228 
225 115 128 205 226 
226 176 166 208 225 
227 200 206 190 228 
228 120 209 117 233 
229 157 154 69 216 
230 114 122 203 223 
231 89 108 114 223 
232 73 71 220 229 
233 207 227 119 230 
234 121 114 122 203 
235 169 214 170 219 
236 57 142 68 220 
237 164 119 227 230 
238 144 204 141 218 
239 63 62 210 222 
240 159 216 208 229 
241 73 74 64 220 
242 135 206 139 224 
243 141 204 144 234 
244 87 89 94 235 
245 71 133 220 229 
246 193 194 213 221 
247 69 154 59 216 
248 95 204 97 218 
249 188 182 205 231 
250 183 200 184 213 
251 209 217 207 227 
252 191 192 221 235 
253 130 143 156 225 
254 207 214 209 227 
255 135 136 152 215 
256 92 96 91 232 
257 190 200 183 206 
258 183 190 206 224 
259 63 58 62 222 
260 98 97 88 212 
261 135 152 139 206 
262 188 205 199 226 
263 151 208 143 225 
264 199 182 184 213 
265 158 164 207 230 
266 159 176 166 208 
267 188 179 105 226 
268 143 208 134 229 
269 160 158 175 214 
270 110 112 127 217 
271 115 128 111 205 
272 134 151 136 215 
273 190 139 129 228 
274 119 207 127 227 
275 98 88 96 212 
276 175 207 164 227 
277 159 208 166 229 
278 72 67 211 224 
279 111 115 205 231 
280 119 106 155 227 
281 168 167 219 233 
282 203 226 121 235 
283 183 211 185 224 
284 145 228 202 232 
285 128 112 111 217 
286 202 228 193 232 
287 169 225 204 234 
288 66 73 216 229 
289 159 160 176 214 
290 95 97 204 234 
291 95 204 218 234 
292 159 161 216 229 
293 92 138 218 232 
294 93 85 86 233 
295 175 158 164 207 
296 188 182 199 205 
297 110 127 119 207 
298 143 151 134 208 
299 192 226 203 235 
300 117 223 85 233 
301 193 184 200 213 
302 204 225 144 234 
303 203 217 212 223 
304 212 217 209 223 
305 107 10 61 109 
306 205 222 111 231 
307 152 136 145 215 
308 115 188 105 226 
309 131 71 133 220 
310 110 207 119 230 
311 143 166 156 225 
312 58 10 61 107 
313 120 227 209 233 
314 168 209 227 233 
315 112 217 110 222 
316 110 222 207 230 
317 146 215 144 218 
318 178 182 181 211 
319 206 213 202 228 
320 202 215 206 228 
321 169 176 160 214 
322 111 217 112 222 
323 94 177 81 221 
324 121 112 128 217 
325 168 160 175 214 
326 131 57 71 220 
327 120 127 112 217 
328 188 181 182 231 
329 97 103 88 212 
330 118 111 222 231 
331 131 133 134 220 
332 153 93 82 219 
333 132 83 92 218 
334 199 184 192 213 
335 144 136 151 215 
336 168 170 214 219 
337 155 119 42 106 
338 107 58 11 118 
339 155 164 119 227 
340 118 58 11 65 
341 106 113 162 227 
342 130 143 50 156 
343 194 192 213 221 
344 106 162 155 227 
345 180 190 54 129 
346 191 221 94 235 
347 145 146 138 218 
348 158 157 164 230 
349 143 134 133 229 
350 117 84 85 223 
351 46 188 179 105 
352 60 72 67 211 
353 43 113 162 106 
354 181 14 178 70 
355 60 178 14 70 
356 162 155 43 106 
357 117 108 84 223 
358 95 90 97 234 
359 109 222 110 230 
360 92 98 96 218 
361 137 130 165 225 
362 179 186 116 226 
363 183 178 185 211 
364 23 66 59 161 
365 60 15 185 67 
366 161 59 23 154 
367 185 178 15 60 
368 22 69 157 154 
369 157 158 154 216 
370 69 22 59 154 
371 66 73 59 216 
372 130 156 165 225 
373 169 170 163 219 
374 74 68 72 220 
375 154 159 161 216 
376 87 212 86 223 
377 116 105 179 226 
378 135 142 131 220 
379 132 92 138 218 
380 166 50 143 156 
381 167 93 219 233 
382 91 96 81 221 
383 139 54 190 129 
384 142 135 139 224 
385 164 119 42 155 
386 188 46 115 105 
387 82 97 90 219 
388 113 162 227 233 
389 194 193 187 221 
390 120 113 227 233 
391 168 227 162 233 
392 152 129 139 228 
393 104 88 87 212 
394 189 55 140 228 
395 137 130 51 165 
396 156 51 130 165 
397 179 186 47 116 
398 105 179 47 116 
399 81 94 30 177 
400 180 200 190 228 
401 189 180 55 228 
402 107 118 111 222 
403 120 122 117 223 
404 137 225 165 234 
405 186 116 226 235 
406 137 144 225 234 
407 129 140 55 228 
408 38 82 153 93 
409 70 80 60 211 
410 186 226 192 235 
411 103 86 88 212 
412 132 141 83 218 
413 87 88 86 212 
414 169 165 225 234 
415 116 121 226 235 
416 90 82 153 39 
417 31 91 81 177 
418 129 55 180 228 
419 79 64 62 210 
420 80 63 64 210 
421 191 177 94 221 
422 115 105 128 226 
423 95 218 141 234 
424 89 27 108 84 
425 176 156 166 225 
426 167 93 153 219 
427 145 140 228 232 
428 189 193 228 232 
429 160 168 170 214 
430 120 112 122 217 
431 89 87 84 223 
432 26 117 108 84 
433 184 193 194 213 
434 84 26 117 85 
435 184 194 192 213 
436 146 136 144 215 
437 153 163 90 39 
438 91 31 187 177 
439 169 160 170 214 
440 145 136 146 215 
441 188 199 179 226 
442 140 189 228 232 
443 35 83 92 132 
444 122 112 121 217 
445 130 151 143 225 
446 18 71 131 57 
447 73 71 74 220 
448 114 27 108 89 
449 79 69 59 216 
450 109 107 110 222 
451 71 133 18 131 
452 57 131 19 142 
453 111 112 110 222 
454 86 85 84 223 
455 62 64 63 210 
456 114 108 122 223 
457 94 81 104 221 
458 183 182 178 211 
459 148 138 99 232 
460 125 119 173 230 
461 119 127 106 227 
462 175 164 155 227 
463 183 185 190 224 
464 68 57 19 142 
465 63 70 65 231 
466 117 122 108 223 
467 94 191 30 177 
468 161 159 166 229 
469 34 83 132 141 
470 92 138 35 132 
471 123 197 115 231 
472 139 196 147 224 
473 172 166 149 229 
474 167 38 153 93 
475 146 144 141 218 
476 110 119 109 230 
477 62 61 69 230 
478 82 93 103 219 
479 68 67 72 224 
480 95 97 98 218 
481 138 92 99 232 
482 95 83 141 218 
483 119 164 173 230 
484 196 139 190 224 
485 158 159 154 216 
486 134 135 131 220 
487 115 197 188 231 
488 166 143 149 229 
489 76 70 181 231 
490 76 181 197 231 
491 74 71 57 220 
492 111 118 115 231 
493 91 195 99 232 
494 187 195 91 232 
495 191 192 194 221 
496 168 155 162 227 
497 106 120 113 227 
498 149 133 78 229 
499 171 90 102 234 
500 140 145 138 232 
501 147 75 142 224 
502 171 163 90 234 
503 187 193 189 232 
504 173 157 77 230 
505 89 124 100 235 
506 69 77 157 230 
507 142 75 68 224 
508 156 169 165 225 
509 89 114 124 235 
510 85 101 126 233 
511 130 137 144 225 
512 170 168 167 219 
513 186 179 192 226 
514 41 173 125 119 
515 116 121 105 226 
516 138 99 36 148 
517 116 114 121 235 
518 169 163 165 234 
519 81 96 104 221 
520 57 68 74 220 
521 185 67 196 224 
522 72 60 80 211 
523 139 196 53 147 
524 82 103 97 219 
525 59 73 79 216 
526 172 166 49 149 
527 197 45 123 115 
528 196 67 75 224 
529 172 66 161 229 
530 109 77 61 230 
531 196 139 53 190 
532 99 138 36 92 
533 41 173 119 164 
534 61 9 77 109 
535 24 66 161 172 
536 185 16 196 67 
537 71 73 66 229 
538 192 191 186 235 
539 137 141 144 234 
540 167 168 162 233 
541 120 117 113 233 
542 198 191 100 235 
543 113 44 162 233 
544 180 189 193 228 
545 118 65 76 231 
546 66 172 78 229 
547 77 109 125 230 
548 166 143 49 149 
549 197 45 115 188 
550 129 145 140 228 
551 125 77 9 109 
552 16 75 196 67 
553 24 66 172 78 
554 100 191 94 235 
555 167 174 101 233 
556 12 76 118 65 
557 137 165 52 234 
558 189 140 56 232 
559 48 116 186 235 
560 102 95 150 234 
561 118 76 123 231 
562 83 34 95 141 
563 17 78 149 133 
564 93 167 101 233 
565 146 141 132 218 
566 95 98 83 218 
567 76 123 12 118 
568 126 85 25 101 
569 126 44 113 233 
570 162 44 174 233 
571 85 126 117 233 
572 132 138 146 218 
573 133 71 78 229 
574 70 181 13 76 
575 197 13 181 76 
576 83 98 92 218 
577 100 94 89 235 
578 99 92 91 232 
579 170 153 163 219 
580 191 194 177 221 
581 52 165 171 234 
582 32 91 187 195 
583 163 40 171 90 
584 48 124 116 235 
585 195 32 91 99 
586 102 171 40 90 
587 153 170 167 219 
588 137 52 150 234 
589 114 89 124 28 
590 89 100 124 28 
591 48 186 198 235 
592 140 148 56 232 
593 69 77 21 157 
594 77 173 21 157 
595 195 189 56 232 
596 177 194 187 221 
597 147 20 142 75 
598 174 44 126 233 
599 199 192 179 226 
600 130 144 151 225 
601 100 198 29 191 
602 87 86 84 223 
603 20 68 142 75 
604 168 175 155 227 
605 106 127 120 227 
606 181 188 197 231 
607 95 150 33 102 
608 156 176 169 225 
609 37 101 167 174 
610 94 100 29 191 
611 128 105 121 226 
612 85 93 101 233 
613 142 139 147 224 
614 52 171 150 234 
615 180 193 200 228 
616 48 198 124 235 
617 129 152 145 228 
618 143 133 149 229 
619 195 56 148 232 
620 95 141 150 234 
621 164 157 173 230 
622 167 93 101 37 
623 58 11 10 107 
624 17 78 133 71 
625 85 25 117 126 
626 196 75 147 224 
627 102 90 95 234 
628 162 113 43 44 
629 119 42 41 164 
630 92 138 36 35 
631 197 123 76 231 
632 46 115 45 188 
633 53 139 54 190 
634 23 24 66 161 
635 185 15 16 67 
636 10 9 61 109 
637 173 77 125 230 
638 172 149 78 229 
639 143 50 166 49 
640 14 15 178 60 
641 186 47 116 48 
642 52 137 51 165 
643 13 14 181 70 
644 90 163 40 39 
645 31 91 187 32 
646 107 111 110 222 
647 59 22 23 154 
648 171 102 150 234 
649 89 114 27 28 
650 124 198 100 235 
651 195 148 99 232 
652 69 21 22 157 
653 101 174 126 233 
654 150 141 95 33 
655 118 11 12 65 
656 140 55 189 56 
657 43 155 42 106 
658 51 130 50 156 
659 19 20 68 142 
660 46 179 47 105 
661 55 180 54 129 
662 99 195 7 148 
663 77 2 173 125 
664 1 197 123 76 
665 75 147 3 196 
666 102 150 8 171 
667 78 172 4 149 
668 5 100 124 198 
669 6 126 101 174 
670 196 190 185 224 
671 68 75 67 224 
672 76 65 70 231 
673 172 161 166 229 
674 29 94 191 30 
675 123 115 118 231 
676 109 119 125 230 
677 93 167 38 37 
678 69 61 77 230 
679 25 117 26 85 
680 189 195 187 232 
681 140 138 148 232 
682 133 18 17 71 
683 108 27 26 84 
684 171 165 163 234 
685 116 124 114 235 
686 131 19 18 57 
687 174 6 126 44 
688 77 9 2 125 
689 172 4 24 78 
690 3 16 75 196 
691 171 150 8 52 
692 123 12 1 76 
693 48 5 124 198 
694 195 56 7 148 
695 78 71 66 229 
696 30 31 81 177 
697 78 4 17 149 
698 39 82 153 38 
699 141 137 150 234 
700 186 191 198 235 
701 33 150 8 102 
702 126 25 6 101 
703 167 162 174 233 
704 117 126 113 233 
705 1 13 197 76 
706 198 5 100 29 
707 196 147 3 53 
708 147 3 20 75 
709 195 7 32 99 
710 124 100 5 28 
711 36 99 7 148 
712 171 8 102 40 
713 172 49 4 149 
714 2 41 173 125 
715 21 2 173 77 
716 37 6 101 174 
717 1 197 45 123 
718 34 95 141 33 
719 132 35 83 34 
720 64 211 220 72 
721 220 211 64 210 
722 232 96 221 202 
723 232 221 96 91 
724 234 97 219 90 
725 234 219 97 204 
726 218 96 212 98 
727 218 212 96 202 
728 235 87 223 203 
729 235 223 87 89 
730 177 91 221 187 
731 177 221 91 81 
732 90 153 219 163 
733 90 219 153 82 
$EndElements
